<?xml version="1.0" encoding="utf-8"?>
<!-- Generator: Adobe Illustrator 25.3.1, SVG Export Plug-In . SVG Version: 6.00 Build 0)  -->
<svg version="1.1" id="图层_1" xmlns="http://www.w3.org/2000/svg" xmlns:xlink="http://www.w3.org/1999/xlink" x="0px" y="0px"
	 viewBox="0 0 600 600" style="enable-background:new 0 0 600 600;" xml:space="preserve">
<style type="text/css">
	.st0{fill:none;}
	.st1{fill:#006FFB;}
</style>
<rect id="透明方底" class="st0" width="600" height="600"/>
<path class="st1" d="M452.8,307.45h69.64V560H452.8V307.45z M163.74,135.05h79.16L405.38,560h-74.4L292.3,453.46H114.34L75.66,560
	H1.26C1.26,560,163.74,135.05,163.74,135.05z M135.17,396.33h136.29l-66.66-186.29h-2.38L135.17,396.33z"/>
<path class="st1" d="M500.61,48.75c-3.82-12.99-22.17-12.99-25.94,0l-19.59,66.76c-0.34,1.2-1.28,2.14-2.48,2.48l-66.71,19.49
	c-12.99,3.77-12.99,22.17,0,25.94l66.76,19.54c1.18,0.36,2.1,1.29,2.43,2.48l19.54,66.71c3.77,12.99,22.12,12.99,25.94,0
	l19.54-66.76c0.33-1.19,1.25-2.13,2.43-2.48l66.76-19.49c12.95-3.77,12.95-22.17,0-25.94l-66.76-19.54
	c-1.19-0.33-2.13-1.25-2.48-2.43l-19.39-66.76H500.61z"/>
</svg>
