<?xml version="1.0" encoding="utf-8"?>
<!-- Generator: Adobe Illustrator 25.3.1, SVG Export Plug-In . SVG Version: 6.00 Build 0)  -->
<svg version="1.1" id="图层_1" xmlns="http://www.w3.org/2000/svg" xmlns:xlink="http://www.w3.org/1999/xlink" x="0px" y="0px"
	 viewBox="0 0 600 600" style="enable-background:new 0 0 600 600;" xml:space="preserve">
<style type="text/css">
	.st0{fill:none;}
	.st1{display:none;fill:none;stroke:#FF0000;stroke-miterlimit:10;}
	.st2{fill-rule:evenodd;clip-rule:evenodd;fill:#FF5E29;}
</style>
<rect id="透明方底" class="st0" width="600" height="600"/>
<circle id="圆框" class="st1" cx="299.96" cy="300.02" r="299.54"/>
<path id="XMLID_19_" class="st2" d="M0.3,1h599v599H0.3V1z M114.59,396.39h33.26V260.21l105.54,136.18h28.02V204.61h-32.82V337.3
	L145.7,204.61h-31.08v191.77H114.59z M337,396.39h33.7v-61.75h38.11c42.04,0,76.61-22.33,76.61-65.25v-0.44
	c0-38.54-28.45-64.37-73.12-64.37H337V396.39z M370.73,304.43v-68.75h38.98c25.39,0,41.17,11.37,41.17,34.14v0.44
	c0,20.15-15.77,34.14-41.17,34.14h-38.98V304.43z M33.56,34.3h532.88v532.88H33.56V34.3z"/>
</svg>
