<?xml version="1.0" encoding="utf-8"?>
<!-- Generator: Adobe Illustrator 25.3.1, SVG Export Plug-In . SVG Version: 6.00 Build 0)  -->
<svg version="1.1" id="图层_1" xmlns="http://www.w3.org/2000/svg" xmlns:xlink="http://www.w3.org/1999/xlink" x="0px" y="0px"
	 viewBox="0 0 600 600" style="enable-background:new 0 0 600 600;" xml:space="preserve">
<style type="text/css">
	.st0{fill:none;}
	.st1{display:none;fill:none;stroke:#FF0000;stroke-miterlimit:10;}
	.st2{fill:#00D095;stroke:#FFFFFF;stroke-width:10;stroke-miterlimit:10;}
</style>
<rect id="透明方底" class="st0" width="600" height="600"/>
<circle id="圆框" class="st1" cx="299.96" cy="300.02" r="299.54"/>
<path d="M255.1,334.74c-14.34,58.36-65.03,97.06-124.84,97.06c-77.38,0-130.09-61.72-130.09-128.43
	c0-63.04,48.77-127.75,129.43-127.75c77.38,0,118.74,59.71,125.41,98.39h-65.93c-7.02-18.34-25.69-43.03-59.71-43.03
	c-42.37,0-66.05,37.06-66.05,72.06c0,37.35,25.36,73.38,66.32,73.38c39.36,0,55.36-33.02,59.38-41.69L255.1,334.74z"/>
<path d="M390.85,180.29h54.44L540.7,335.4l0.66-0.66l-2.67-154.45H599v246.85h-54.62l-94.08-150.2l-0.66,0.33l1.68,149.79h-60.47
	L390.85,180.29z"/>
<path class="st2" d="M198.86,168.74h85.56c28.99,0,80.66,0,114.17,48.2c17.81,24.44,23.74,52.02,23.74,80.31
	c0,70.52-34.92,129.89-133.03,129.89h-90.43V168.74z M264.85,369.17h28.28c49.23,0,63.2-34.21,63.2-70.89
	c0-14.65-3.14-33.16-12.56-47.83c-7.69-11.53-20.95-23.74-50.29-23.74h-28.64V369.17z"/>
</svg>
