<?xml version="1.0" encoding="utf-8"?>
<!-- Generator: Adobe Illustrator 25.3.1, SVG Export Plug-In . SVG Version: 6.00 Build 0)  -->
<svg version="1.1" id="图层_1" xmlns="http://www.w3.org/2000/svg" xmlns:xlink="http://www.w3.org/1999/xlink" x="0px" y="0px"
	 viewBox="0 0 600 600" style="enable-background:new 0 0 600 600;" xml:space="preserve">
<style type="text/css">
	.st0{fill:none;}
	.st1{fill:#F78100;}
	.st2{fill:#FBAC42;}
</style>
<rect id="透明方底" class="st0" width="600" height="600"/>
<path class="st1" d="M409.66,432.31l3.07-10.61c3.66-12.63,2.3-24.3-3.84-32.88c-5.64-7.9-15.05-12.55-26.47-13.09l-216.38-2.76
	c-1.46-0.08-2.66-0.73-3.41-1.81c-0.75-1.11-0.93-2.54-0.46-3.91c0.71-2.13,2.83-3.74,5.03-3.84l218.38-2.77
	c25.9-1.19,53.95-22.21,63.77-47.84l12.45-32.54c0.34-0.89,0.5-1.83,0.49-2.77c0-0.51-0.04-1.03-0.15-1.54
	c-14.15-63.61-70.91-111.17-138.78-111.17c-62.54,0-115.64,40.37-134.68,96.47c-12.29-9.22-28.02-14.12-44.92-12.44
	c-30,2.98-54.11,27.14-57.09,57.14c-0.78,7.79-0.14,15.3,1.65,22.36C39.3,329.75,0,369.9,0,419.26c0,4.47,0.34,8.86,0.96,13.15
	c0.31,2.08,2.06,3.65,4.17,3.65l399.47,0.05c0.04,0,0.07-0.02,0.11-0.02C407,436.03,409.01,434.52,409.66,432.31z"/>
<path class="st2" d="M481.74,282.64c-2.01,0-4,0.06-5.99,0.15c-0.33,0.02-0.64,0.1-0.94,0.2c-1.04,0.36-1.86,1.2-2.18,2.3
	l-8.51,29.39c-3.66,12.63-2.3,24.29,3.84,32.87c5.64,7.91,15.05,12.55,26.47,13.09l46.13,2.77c1.36,0.07,2.56,0.72,3.29,1.78
	c0.77,1.12,0.95,2.56,0.48,3.93c-0.72,2.13-2.83,3.74-5.02,3.84l-47.93,2.77c-26.02,1.2-54.07,22.21-63.89,47.84l-3.46,9.05
	c-0.63,1.64,0.54,3.38,2.27,3.47c0.04,0,0.08,0.02,0.13,0.02h164.92c1.97,0,3.72-1.28,4.25-3.17C598.48,422.74,600,412,600,400.9
	C600,335.59,547.05,282.64,481.74,282.64z"/>
</svg>
