<?xml version="1.0" encoding="utf-8"?>
<!-- Generator: Adobe Illustrator 25.3.1, SVG Export Plug-In . SVG Version: 6.00 Build 0)  -->
<svg version="1.1" id="图层_1" xmlns="http://www.w3.org/2000/svg" xmlns:xlink="http://www.w3.org/1999/xlink" x="0px" y="0px"
	 viewBox="0 0 600 600" style="enable-background:new 0 0 600 600;" xml:space="preserve">
<style type="text/css">
	.st0{fill:none;}
	.st1{fill:#0B0B0A;}
</style>
<rect id="透明方底" class="st0" width="600" height="600"/>
<path class="st1" d="M599.77,205.25l-0.2-1.15c-0.12-0.72-0.27-1.44-0.45-2.15l-0.42-1.25c-0.36-1.06-0.78-2.11-1.25-3.12
	c-0.25-0.59-0.54-1.15-0.88-1.7c-0.2-0.42-0.47-0.82-0.72-1.2c-0.57-0.96-1.22-1.86-1.95-2.7c-0.41-0.48-0.85-0.95-1.3-1.4l-1-1
	c-0.49-0.43-0.99-0.84-1.5-1.25l-1.15-0.87c-0.15-0.08-0.27-0.22-0.42-0.3L314.3,4.33c-8.66-5.77-19.94-5.77-28.6,0L11.5,187.15
	c-0.15,0.07-0.3,0.22-0.45,0.32c-0.93,0.64-1.8,1.35-2.62,2.12c-0.35,0.27-0.68,0.65-1,0.97c-0.81,0.76-1.55,1.6-2.2,2.5
	c-0.67,0.89-1.27,1.82-1.8,2.8c-0.33,0.55-0.63,1.12-0.9,1.7l-0.55,1.25c-0.25,0.61-0.48,1.24-0.68,1.87l-0.4,1.25
	c-0.18,0.72-0.33,1.44-0.45,2.17c-0.08,0.37-0.18,0.72-0.2,1.12c-0.16,1.11-0.24,2.23-0.25,3.35v182.8c0,1.12,0.1,2.25,0.25,3.37
	c0.03,0.35,0.12,0.75,0.2,1.1c0.12,0.75,0.25,1.45,0.45,2.17l0.4,1.25c0.2,0.62,0.4,1.25,0.68,1.9l0.55,1.25
	c0.28,0.57,0.58,1.12,0.9,1.7c0.25,0.4,0.47,0.8,0.75,1.17c1.16,1.9,2.59,3.62,4.25,5.1c0.82,0.76,1.7,1.46,2.62,2.1
	c0.18,0.1,0.3,0.25,0.45,0.32l274.2,182.82c8.66,5.78,19.94,5.78,28.6,0l274.22-182.82c0.15-0.07,0.28-0.23,0.43-0.3l1.17-0.9
	c0.49-0.41,0.98-0.82,1.45-1.25c0.35-0.3,0.68-0.65,1-1c1.25-1.23,2.34-2.59,3.27-4.07l0.75-1.17c0.32-0.56,0.61-1.14,0.88-1.72
	l0.58-1.25c0.25-0.62,0.45-1.25,0.65-1.87l0.42-1.25l0.45-2.17l0.2-1.1c0.15-1.12,0.22-2.25,0.23-3.37V208.6
	C600,207.48,599.93,206.36,599.77,205.25z M325.78,73.97l202,134.65l-90.2,60.35l-111.8-74.75L325.78,73.97L325.78,73.97z
	 M274.23,73.97v120.25l-111.78,74.75L72.2,208.62l202-134.65L274.23,73.97z M51.58,256.85l64.5,43.15l-64.5,43.15L51.58,256.85
	L51.58,256.85z M274.23,526.02l-202-134.65l90.22-60.35l111.75,74.75v120.25H274.23z M300,360.99l-91.18-61L300,239l91.2,61
	L300,360.99z M325.77,526.02V405.77l111.8-74.75l90.23,60.35l-202,134.65H325.77z M548.42,343.14l-64.48-43.15l64.5-43.15v86.3
	H548.42z"/>
</svg>
