<?xml version="1.0" encoding="utf-8"?>
<!-- Generator: Adobe Illustrator 25.3.1, SVG Export Plug-In . SVG Version: 6.00 Build 0)  -->
<svg version="1.1" id="图层_1" xmlns="http://www.w3.org/2000/svg" xmlns:xlink="http://www.w3.org/1999/xlink" x="0px" y="0px"
	 viewBox="0 0 600 600" style="enable-background:new 0 0 600 600;" xml:space="preserve">
<style type="text/css">
	.st0{fill:none;}
	.st1{fill:#1A73E8;}
	.st2{fill:#EA4335;}
	.st3{fill:#FBBC04;}
	.st4{fill:#34A853;}
	.st5{fill:#185DB7;}
</style>
<rect id="透明方底" class="st0" width="600" height="600"/>
<path class="st1" d="M598.21,296L598.21,296c0,27.75-22.49,50.24-50.24,50.24H374.55L300,195.5l80.47-139.37
	c13.87-24.03,44.6-32.26,68.63-18.39l0.01,0.01c24.03,13.87,32.27,44.6,18.39,68.63l-80.47,139.38h160.94
	C575.71,245.76,598.21,268.25,598.21,296z"/>
<path class="st2" d="M449.11,554.26L449.11,554.26c-24.04,13.88-54.76,5.64-68.64-18.38L300,396.5l-80.47,139.37
	c-13.87,24.03-44.6,32.26-68.63,18.39l-0.01-0.01c-24.03-13.87-32.27-44.6-18.39-68.63l80.47-139.38L300,343l87.03,3.24
	l80.47,139.38C481.37,509.66,473.14,540.38,449.11,554.26z"/>
<path class="st3" d="M300,195.5l-22.69,61.6l-64.34-11.34L132.5,106.38c-13.87-24.03-5.64-54.76,18.39-68.63l0.01-0.01
	c24.03-13.87,54.76-5.64,68.63,18.39L300,195.5z"/>
<path class="st4" d="M287.03,245.76l-58.35,100.48H52.03c-27.75,0-50.24-22.49-50.24-50.24v0c0-27.75,22.49-50.24,50.24-50.24
	H287.03z"/>
<polygon class="st5" points="387.03,346.24 212.97,346.24 300,195.5 "/>
</svg>
