<?xml version="1.0" encoding="utf-8"?>
<!-- Generator: Adobe Illustrator 25.3.1, SVG Export Plug-In . SVG Version: 6.00 Build 0)  -->
<svg version="1.1" id="图层_1" xmlns="http://www.w3.org/2000/svg" xmlns:xlink="http://www.w3.org/1999/xlink" x="0px" y="0px"
	 viewBox="0 0 600 600" style="enable-background:new 0 0 600 600;" xml:space="preserve">
<style type="text/css">
	.st0{fill:none;}
	.st1{fill:#F9A800;}
	.st2{fill:url(#SVGID_1_);}
	.st3{fill:url(#SVGID_2_);}
	.st4{fill:#FFFFFF;}
</style>
<rect id="透明方底" class="st0" width="600" height="600"/>
<path class="st1" d="M437.16,212.21l101.97-71.51c26.12-15.54,59.69,1.87,59.69,31.71v270.48c0,26.12-26.12,43.53-49.74,38.55
	c-6.22-1.24-11.81-3.73-16.17-6.84l-95.76-69.02V212.21z"/>
<linearGradient id="SVGID_1_" gradientUnits="userSpaceOnUse" x1="2.2912" y1="520.1542" x2="18.6922" y2="506.2461" gradientTransform="matrix(25 0 0 25 -24 -12524)">
	<stop  offset="0.314" style="stop-color:#FFCD0A"/>
	<stop  offset="0.642" style="stop-color:#FFD824"/>
	<stop  offset="0.841" style="stop-color:#FFDC32"/>
	<stop  offset="0.918" style="stop-color:#FFDF4C"/>
	<stop  offset="1" style="stop-color:#FFE650"/>
</linearGradient>
<path class="st2" d="M368.77,63.6h-222.6C69.69,63.6,1.91,128.89,1.91,207.23v263.02c0,33.58,26.12,67.15,62.8,67.15h305.3
	c34.82,0,67.15-27.36,67.15-67.15V135.1C437.16,95.93,408.56,63.6,368.77,63.6"/>
<radialGradient id="SVGID_2_" cx="17.9243" cy="589.02" r="7.4614" gradientTransform="matrix(25 0 0 -25 -24 15026)" gradientUnits="userSpaceOnUse">
	<stop  offset="0" style="stop-color:#FFB6C1"/>
	<stop  offset="1" style="stop-color:#FFB6C1;stop-opacity:0"/>
</radialGradient>
<path class="st3" d="M424.11-10.39c-171.7,0-310.89,139.19-310.89,310.89S252.4,611.39,424.11,611.39S735,472.2,735,300.5
	S595.81-10.39,424.11-10.39"/>
<path class="st4" d="M100.16,384.44c-24.25,0-47.26,17.41-47.26,50.36c1.24,24.87,18.65,46.63,47.26,46.63
	c25.49,0,47.88-18.65,47.88-45.39C148.03,409.93,129.38,384.44,100.16,384.44"/>
</svg>
