<?xml version="1.0" encoding="utf-8"?>
<!-- Generator: Adobe Illustrator 25.3.1, SVG Export Plug-In . SVG Version: 6.00 Build 0)  -->
<svg version="1.1" id="图层_1" xmlns="http://www.w3.org/2000/svg" xmlns:xlink="http://www.w3.org/1999/xlink" x="0px" y="0px"
	 viewBox="0 0 600 600" style="enable-background:new 0 0 600 600;" xml:space="preserve">
<style type="text/css">
	.st0{fill:none;}
	.st1{fill:#0066DA;}
	.st2{fill:#00AC47;}
	.st3{fill:#EA4335;}
	.st4{fill:#00832D;}
	.st5{fill:#2684FC;}
	.st6{fill:#FFBA00;}
</style>
<rect id="透明方底" class="st0" width="600" height="600"/>
<path class="st1" d="M47,490.39l26.34,45.5c5.47,9.58,13.34,17.11,22.58,22.58L190,395.63H1.84c0,10.61,2.74,21.21,8.21,30.79
	L47,490.39z"/>
<path class="st2" d="M300.5,204.05L206.42,41.21c-9.24,5.47-17.11,13-22.58,22.58L10.06,364.84c-5.37,9.37-8.2,19.99-8.21,30.79H190
	L300.5,204.05z"/>
<path class="st3" d="M505.08,558.84c9.24-5.47,17.11-13,22.58-22.58l10.95-18.82l52.34-90.66c5.47-9.58,8.21-20.18,8.21-30.79
	H410.99l40.04,78.68L505.08,558.84z"/>
<path class="st4" d="M300.5,204.05l94.08-162.84c-9.24-5.47-19.84-8.21-30.79-8.21H237.21c-10.95,0-21.55,3.08-30.79,8.21
	L300.5,204.05z"/>
<path class="st5" d="M411,395.63H190L95.92,558.47c9.24,5.47,19.84,8.21,30.79,8.21h347.58c10.95,0,21.55-3.08,30.79-8.21
	L411,395.63z"/>
<path class="st6" d="M504.18,214.5L417.23,63.81c-5.48-9.59-13.35-17.12-22.59-22.6L300.5,204.22L411.07,396H599
	c0-10.62-2.74-21.23-8.22-30.82L504.18,214.5z"/>
</svg>
