<?xml version="1.0" standalone="no"?><!DOCTYPE svg PUBLIC "-//W3C//DTD SVG 1.1//EN" "http://www.w3.org/Graphics/SVG/1.1/DTD/svg11.dtd"><svg t="1781620983585" class="icon" viewBox="0 0 1024 1024" version="1.1" xmlns="http://www.w3.org/2000/svg" p-id="7414" xmlns:xlink="http://www.w3.org/1999/xlink" width="200" height="200"><path d="M624.398979 17.021497A388.377734 388.377734 0 0 0 511.19746 0.002046 375.655779 375.655779 0 0 0 227.835537 127.596769l174.969507 141.544532L624.433086 17.055605z" fill="#1A73E8" p-id="7415"></path><path d="M227.835537 127.596769c-53.786922 61.904416-86.70029 142.328996-86.70029 228.926964 0 67.293341 13.642847 121.421334 36.938007 170.194511l224.765897-257.576943-175.003614-141.544532z" fill="#EA4335" p-id="7416"></path><path d="M512.01603 220.436339c78.65101 0 142.090247 61.085845 142.090247 136.871858 0 33.254438-12.858383 64.189593-33.731938 88.166896 0 0 111.598485-128.379186 220.775364-252.904268C796.196524 109.042497 718.29587 45.637368 624.398979 17.055605L402.805044 269.107194a146.285422 146.285422 0 0 1 109.142772-48.704962z" fill="#4285F4" p-id="7417"></path><path d="M512.01603 493.429698c-78.685117 0-142.090247-61.085845-142.090246-136.905965 0-33.254438 12.039812-64.189593 32.913367-87.382432l-224.765897 257.542836c38.541041 81.993508 102.730634 148.502385 168.557369 231.246249l273.743716-313.20565a143.147567 143.147567 0 0 1-108.358309 48.704962z" fill="#FBBC04" p-id="7418"></path><path d="M615.565236 844.562461c123.638297-186.395391 267.331578-270.708182 267.331577-487.254264a347.210444 347.210444 0 0 0-41.74711-164.737372L346.630623 757.930386a1425.165856 1425.165856 0 0 1 63.439237 87.416539c75.444941 112.144198 54.571386 178.653075 102.730634 178.653075 48.193355 0 27.285693-67.293341 102.764742-179.437539z" fill="#34A853" p-id="7419"></path></svg>