<?xml version="1.0" encoding="utf-8"?>
<!-- Generator: Adobe Illustrator 25.3.1, SVG Export Plug-In . SVG Version: 6.00 Build 0)  -->
<svg version="1.1" id="图层_1" xmlns="http://www.w3.org/2000/svg" xmlns:xlink="http://www.w3.org/1999/xlink" x="0px" y="0px"
	 viewBox="0 0 600 600" style="enable-background:new 0 0 600 600;" xml:space="preserve">
<style type="text/css">
	.st0{fill:none;}
	.st1{fill:url(#SVGID_1_);}
	.st2{fill:#1A73E8;}
	.st3{fill:url(#SVGID_2_);}
	.st4{fill:url(#SVGID_3_);}
</style>
<rect id="透明方底" class="st0" width="600" height="600"/>
<path class="st0" d="M41.38,449.48c82.55,142.99,265.39,191.98,408.37,109.42s191.98-265.39,109.42-408.37S293.79-41.45,150.8,41.1
	c0,0,0,0,0,0C7.82,123.66-41.18,306.49,41.38,449.48z M429.72,225.26c41.28,71.49,16.78,162.91-54.71,204.19
	c-71.49,41.28-162.91,16.78-204.19-54.71s-16.78-162.91,54.71-204.19c0,0,0,0,0,0C297.03,129.27,388.45,153.77,429.72,225.26z"/>
<linearGradient id="SVGID_1_" gradientUnits="userSpaceOnUse" x1="41.4012" y1="414.1311" x2="559.1311" y2="414.1311" gradientTransform="matrix(1 0 0 -1 0 602)">
	<stop  offset="0" style="stop-color:#D93025"/>
	<stop  offset="1" style="stop-color:#EA4335"/>
</linearGradient>
<path class="st1" d="M300.28,150.53h258.86C476.62,7.56,293.84-41.44,150.88,41.07C105.4,67.32,67.64,105.08,41.4,150.56
	l129.43,224.18l0.12-0.03c-41.36-71.33-17.07-162.68,54.25-204.04C248.01,157.44,273.91,150.49,300.28,150.53z"/>
<circle class="st2" cx="300.28" cy="300" r="118.33"/>
<linearGradient id="SVGID_2_" gradientUnits="userSpaceOnUse" x1="259.4629" y1="7.0355" x2="518.3282" y2="455.4023" gradientTransform="matrix(1 0 0 -1 0 602)">
	<stop  offset="0" style="stop-color:#FCC934"/>
	<stop  offset="1" style="stop-color:#FBBC04"/>
</linearGradient>
<path class="st3" d="M429.71,374.77L300.28,598.95c165.06,0.02,298.89-133.77,298.92-298.83c0.01-52.51-13.82-104.09-40.08-149.55
	H300.26l-0.03,0.12c82.45-0.16,149.42,66.55,149.58,149C449.86,326.05,442.92,351.96,429.71,374.77z"/>
<linearGradient id="SVGID_3_" gradientUnits="userSpaceOnUse" x1="332.6158" y1="21.7036" x2="73.7504" y2="470.0717" gradientTransform="matrix(1 0 0 -1 0 602)">
	<stop  offset="0" style="stop-color:#1E8E3E"/>
	<stop  offset="1" style="stop-color:#34A853"/>
</linearGradient>
<path class="st4" d="M170.84,374.78L41.41,150.6c-82.55,142.94-33.6,325.73,109.34,408.29c45.47,26.26,97.05,40.08,149.56,40.06
	l129.43-224.18l-0.08-0.08c-41.09,71.48-132.35,96.12-203.83,55.03C202.96,416.58,183.99,397.63,170.84,374.78z"/>
</svg>
