<?xml version="1.0" encoding="utf-8"?>
<!-- Generator: Adobe Illustrator 25.3.1, SVG Export Plug-In . SVG Version: 6.00 Build 0)  -->
<svg version="1.1" id="图层_1" xmlns="http://www.w3.org/2000/svg" xmlns:xlink="http://www.w3.org/1999/xlink" x="0px" y="0px"
	 viewBox="0 0 600 600" style="enable-background:new 0 0 600 600;" xml:space="preserve">
<style type="text/css">
	.st0{fill:none;}
	.st1{fill:#FE0000;}
	.st2{fill:#FFFFFF;}
</style>
<rect id="透明方底" class="st0" width="600" height="600"/>
<path class="st1" d="M131.05,0h338.23c72.29,0,130.88,58.6,130.88,130.88v338.23c0,72.29-58.6,130.88-130.88,130.88H131.05
	C58.77,600,0.17,541.4,0.17,469.12V130.88C0.17,58.6,58.77,0,131.05,0z"/>
<path class="st2" d="M298.61,174.2c0.96,0,1.93,0,2.91,0c32.55-0.02,64.91,0.62,97.36,3.12c1.55,0.12,3.1,0.23,4.64,0.35
	c21.17,1.59,43.37,3.37,58.62,19.78c12.17,16.27,12.93,37.97,14.38,57.51c0.09,1.07,0.17,2.16,0.26,3.27
	c0.91,12.42,0.88,24.85,0.88,37.29c0,2.49,0.01,4.98,0.02,7.47c0.07,13.65-0.12,27.21-1.08,40.83c-0.04,0.57-0.08,1.13-0.12,1.72
	c-3.35,46.62-3.35,46.62-19,61.14c-34.14,27.49-110.25,18.27-150.89,18.18c-5.4-0.01-10.79,0-16.19,0.01
	c-126.34,0.22-126.34,0.22-149.34-20.39c-22.48-22.48-17.42-70.08-17.43-99.04c0-1.16,0.01-2.32,0.01-3.48c0-1.8,0-3.6,0-5.4
	c0-18.72,0.43-37.33,2.09-55.98c0.08-0.86,0.14-1.73,0.22-2.63c1.42-16.67,4.6-33.33,17.36-45.23
	c23.68-18.39,61.04-15.82,89.53-17.21c2.2-0.11,4.4-0.23,6.6-0.36C259.14,174.08,278.88,174.21,298.61,174.2z"/>
<path class="st1" d="M264.7,247.28c4.16,1.39,7,2.47,10.64,4.64c0.91,0.54,1.83,1.07,2.77,1.63c0.48,0.29,0.96,0.58,1.46,0.87
	c2.04,1.22,4.09,2.42,6.14,3.63c1.05,0.62,2.11,1.25,3.16,1.87c4.85,2.87,9.75,5.66,14.65,8.44c7.22,4.1,14.4,8.27,21.57,12.46
	c10.5,6.14,21.05,12.2,31.63,18.21c-4.6,4.04-9.87,6.91-15.15,9.95c-1.04,0.59-2.06,1.19-3.09,1.78c-2.13,1.23-4.27,2.46-6.39,3.69
	c-4.86,2.81-9.7,5.65-14.55,8.48c-6.02,3.52-12.05,7.03-18.1,10.5c-0.55,0.31-1.08,0.62-1.64,0.94c-2.16,1.25-4.32,2.48-6.48,3.73
	c-6.95,4-13.87,8.03-20.68,12.26c-3.81,2.34-3.81,2.34-5.93,2.34C264.7,317.92,264.7,283.13,264.7,247.28z"/>
</svg>
