<?xml version="1.0" encoding="utf-8"?>
<!-- Generator: Adobe Illustrator 25.3.1, SVG Export Plug-In . SVG Version: 6.00 Build 0)  -->
<svg version="1.1" id="图层_1" xmlns="http://www.w3.org/2000/svg" xmlns:xlink="http://www.w3.org/1999/xlink" x="0px" y="0px"
	 viewBox="0 0 600 600" style="enable-background:new 0 0 600 600;" xml:space="preserve">
<style type="text/css">
	.st0{fill:none;}
	.st1{fill:#0C9D58;}
	.st2{opacity:0.2;fill:#004D40;enable-background:new    ;}
	.st3{opacity:0.2;fill:#FFFFFF;enable-background:new    ;}
	.st4{fill:#EA4335;}
	.st5{opacity:0.2;fill:#3E2723;enable-background:new    ;}
	.st6{fill:#FFC107;}
	.st7{fill:#4285F4;}
	.st8{fill:#FFFFFF;}
	.st9{opacity:0.2;fill:#1A237E;enable-background:new    ;}
	.st10{fill:url(#SVGID_1_);}
</style>
<rect id="透明方底" class="st0" width="600" height="600"/>
<g>
	<path class="st1" d="M477.21,394.52c-0.06,8.41-6.89,15.2-15.3,15.2H138.15c-8.44,0.04-15.31-6.76-15.37-15.2V76.83
		c0.06-8.41,6.89-15.2,15.3-15.2h323.75c8.44-0.04,15.31,6.76,15.37,15.2V394.52z"/>
	<path class="st2" d="M477.21,143.28l-121.36-15.61l121.36,32.58V143.28z M305.86,78.19l-183.79,82.06l203.11-73.92v-0.2
		C322.01,78.63,313.38,75.08,305.86,78.19L305.86,78.19z"/>
	<path class="st3" d="M461.9,61.63H138.15c-8.44-0.04-15.31,6.76-15.37,15.2v3.41c0.06-8.41,6.89-15.2,15.3-15.2h323.75
		c8.44-0.04,15.31,6.76,15.37,15.2v-3.41C477.15,68.42,470.32,61.63,461.9,61.63L461.9,61.63z"/>
	<path class="st4" d="M201.37,384.77c-2.4,7.79,1.94,16.06,9.71,18.5l299.9,80.67c7.96,1.76,15.84-3.23,17.65-11.18l70.65-263.71
		c2.41-7.76-1.88-16.01-9.61-18.51l-299.9-80.66c-7.96-1.76-15.84,3.23-17.65,11.18L201.37,384.77z"/>
	<path class="st5" d="M531.73,303.18l15.78,95.83l-15.78,58.89V303.18z M357.25,131.59l14.14,3.82l8.79,59.13L357.25,131.59z"/>
	<path class="st3" d="M589.67,190.55l-299.9-80.66c-7.96-1.76-15.84,3.23-17.65,11.18l-70.75,263.71c0,0.44,0,0.89-0.24,1.33
		l70.13-261.73c1.81-7.94,9.7-12.94,17.65-11.18l299.9,80.67c7.19,2.29,11.48,9.66,9.92,17.04l0.54-2.01
		C601.58,201.18,597.31,193.05,589.67,190.55L589.67,190.55z"/>
	<path class="st6" d="M437.57,352.29c3.08,7.55-0.51,16.16-8.04,19.29l-316.5,115.19c-7.77,2.46-16.07-1.82-18.57-9.58L1.08,220.61
		c-3.05-7.55,0.55-16.14,8.08-19.26L325.66,86.17c7.78-2.5,16.12,1.77,18.64,9.54L437.57,352.29L437.57,352.29z"/>
	<path class="st3" d="M2.28,223.85c-3.05-7.54,0.53-16.13,8.04-19.26L326.81,89.4c7.66-2.41,15.85,1.73,18.44,9.34l-0.95-3.03
		c-2.51-7.75-10.8-12.03-18.57-9.58L9.16,201.35c-7.53,3.13-11.12,11.74-8.04,19.29L94.5,477.19v0.24L2.28,223.85z"/>
	<path class="st7" d="M83.59,194.54H516.4c8.47,0,15.34,6.87,15.34,15.34v327.16c0,8.47-6.87,15.34-15.34,15.34H83.59
		c-8.47,0-15.34-6.87-15.34-15.34V209.88C68.25,201.41,75.12,194.54,83.59,194.54z"/>
	<path class="st8" d="M319.59,289.96h129.5c3.76,0,6.82,3.05,6.82,6.82v20.45c0,3.76-3.05,6.82-6.82,6.82h-129.5L319.59,289.96
		L319.59,289.96z M319.59,419.46h129.5c3.76,0,6.82,3.05,6.82,6.82v20.45c0,3.76-3.05,6.81-6.82,6.81h-129.5L319.59,419.46
		L319.59,419.46z M319.59,354.71h149.95c3.76,0,6.82,3.05,6.82,6.81v20.45c0,3.76-3.05,6.82-6.82,6.82H319.59V354.71z"/>
	<path class="st9" d="M516.4,548.96H83.59c-8.46-0.02-15.32-6.87-15.34-15.34v3.41c0.02,8.46,6.87,15.32,15.34,15.34H516.4
		c8.46-0.02,15.32-6.87,15.34-15.34v-3.41C531.72,542.09,524.86,548.95,516.4,548.96L516.4,548.96z"/>
	<path class="st3" d="M83.59,197.95H516.4c8.46,0.02,15.32,6.87,15.34,15.34v-3.41c-0.02-8.46-6.87-15.32-15.34-15.33H83.59
		c-8.46,0.02-15.32,6.87-15.34,15.33v3.41C68.27,204.82,75.13,197.97,83.59,197.95z"/>
	<path class="st8" d="M203.72,358.12v30.67h44.1c-3.65,18.74-20.11,32.31-44.1,32.31c-27.29,0-49.42-22.12-49.42-49.42
		c0-27.29,22.12-49.42,49.42-49.42c11.73-0.22,23.06,4.21,31.52,12.34l23.35-23.34c-14.83-13.96-34.51-21.6-54.87-21.3
		c-45.17-0.17-81.93,36.31-82.1,81.48c-0.17,45.17,36.31,81.93,81.48,82.1c0.21,0,0.41,0,0.62,0c47.23,0,78.38-33.19,78.38-79.92
		c-0.02-5.2-0.45-10.38-1.29-15.51H203.72z"/>
	<path class="st9" d="M204.57,388.79v3.41h43.28c0.32-1.11,0.59-2.25,0.82-3.41H204.57L204.57,388.79z"/>
	<path class="st9" d="M204.57,453.54c-44.51,0.01-80.86-35.58-81.79-80.09v1.7c0,45.17,36.62,81.79,81.79,81.79
		c47.23,0,78.38-33.19,78.38-79.92v-1.09C281.83,421.44,251.02,453.54,204.57,453.54L204.57,453.54z M235.96,334.61
		c-8.44-8.06-19.72-12.47-31.39-12.27c-26.96,0.43-48.57,22.45-48.5,49.42v1.7c0.8-26.28,22.11-47.29,48.39-47.71
		c11.67-0.2,22.95,4.2,31.39,12.27l25.05-25.05c-0.58-0.54-1.23-1.02-1.84-1.57l-23.21,23.21L235.96,334.61z M455.91,320.63v-3.41
		c0,3.76-3.05,6.82-6.82,6.82h-129.5v3.41h129.5C452.86,327.45,455.91,324.4,455.91,320.63L455.91,320.63z M449.09,453.54h-129.5
		v3.41h129.5c3.76,0,6.82-3.05,6.82-6.82v-3.41C455.91,450.49,452.86,453.54,449.09,453.54L449.09,453.54z M469.54,388.79H319.59
		v3.41h149.95c3.76,0,6.82-3.05,6.82-6.82v-3.41C476.36,385.74,473.3,388.79,469.54,388.79L469.54,388.79z"/>
	
		<radialGradient id="SVGID_1_" cx="1.0113" cy="601.0898" r="0.2348" gradientTransform="matrix(2032.1313 0 0 -2032.1287 -1919.9156 1221593.125)" gradientUnits="userSpaceOnUse">
		<stop  offset="0" style="stop-color:#FFFFFF;stop-opacity:0.1"/>
		<stop  offset="1" style="stop-color:#FFFFFF;stop-opacity:0"/>
	</radialGradient>
	<path class="st10" d="M589.67,190.55l-112.46-30.09V76.83c-0.06-8.41-6.89-15.2-15.3-15.2H138.15c-8.44-0.04-15.31,6.76-15.37,15.2
		v83.15L9.16,201.36c-7.53,3.12-11.12,11.74-8.04,19.29l67.14,184.5v131.89c0.02,8.46,6.87,15.32,15.34,15.34H516.4
		c8.46-0.02,15.32-6.87,15.34-15.34v-75.72l67.58-252.19C601.76,201.33,597.45,193.03,589.67,190.55L589.67,190.55z"/>
</g>
</svg>
