<?xml version="1.0" encoding="utf-8"?>
<!-- Generator: Adobe Illustrator 25.3.1, SVG Export Plug-In . SVG Version: 6.00 Build 0)  -->
<svg version="1.1" id="图层_1" xmlns="http://www.w3.org/2000/svg" xmlns:xlink="http://www.w3.org/1999/xlink" x="0px" y="0px"
	 viewBox="0 0 600 600" style="enable-background:new 0 0 600 600;" xml:space="preserve">
<style type="text/css">
	.st0{fill:none;}
	.st1{fill:#3C8BD9;}
	.st2{fill:#FABC04;}
	.st3{fill:#34A852;}
	.st4{fill:#E1C025;}
</style>
<rect id="透明方底" class="st0" width="600" height="600"/>
<g transform="matrix(.257748 0 0 .257745 -.361416 2.515516)">
	<path class="st1" d="M797.41,347c22.39-58.77,53.17-112.87,98.88-156.71c182.83-178.16,485.05-133.39,609.11,90.48
		c93.28,169.77,192.15,335.8,288.23,503.7l481.32,837.64c133.39,234.13-11.19,529.82-276.1,569.93
		c-162.3,24.25-314.35-50.37-398.3-195.88l-423.48-735.03c-2.8-5.6-6.53-10.26-10.26-14.92c-14.92-12.13-21.45-29.85-30.78-45.71
		L824.46,660.42c-36.38-63.43-53.17-132.46-51.3-205.21C775.95,417.9,780.62,380.58,797.41,347"/>
	<path class="st2" d="M797.41,347c-8.4,33.58-15.86,67.16-17.72,102.61c-2.8,78.35,16.79,151.11,55.97,219.2l306.89,530.75
		c9.33,15.86,16.79,31.71,26.12,46.64l-168.83,290.1L763.83,1943c-3.73,0-4.66-1.87-5.6-4.66c-0.93-7.46,1.87-13.99,3.73-21.45
		c38.24-139.92,6.53-263.98-89.55-370.31c-58.77-64.36-133.39-100.74-219.2-112.87c-111.93-15.86-210.81,13.06-299.42,83.02
		c-15.86,12.13-26.12,29.85-44.77,39.18c-3.73,0-5.6-1.87-6.53-4.66l133.39-232.26l555.01-961.7
		C792.74,353.53,795.54,350.73,797.41,347"/>
	<path class="st3" d="M106.22,1554.02l53.17-47.57c226.67-179.09,567.13-49.44,616.57,234.13c12.13,68.09,5.6,133.39-14.92,198.68
		c-0.93,5.6-1.87,10.26-3.73,15.86c-8.4,14.92-15.86,30.78-25.19,45.71c-83.02,137.12-205.21,205.21-365.65,194.95
		c-183.76-13.06-328.34-151.11-353.52-333.94c-12.13-88.61,5.6-171.63,51.3-248.12c9.33-16.79,20.52-31.71,30.78-48.5
		C99.69,1561.49,97.82,1554.02,106.22,1554.02"/>
	<path class="st2" d="M106.22,1554.02c-3.73,3.73-3.73,10.26-10.26,11.19c-0.93-6.53,2.8-10.26,6.53-14.92L106.22,1554.02"/>
	<path class="st4" d="M757.3,1955.12c-3.73-6.53,0-11.19,3.73-15.86l3.73,3.73L757.3,1955.12"/>
</g>
</svg>
