<?xml version="1.0" encoding="utf-8"?>
<!-- Generator: Adobe Illustrator 25.3.1, SVG Export Plug-In . SVG Version: 6.00 Build 0)  -->
<svg version="1.1" id="图层_1" xmlns="http://www.w3.org/2000/svg" xmlns:xlink="http://www.w3.org/1999/xlink" x="0px" y="0px"
	 viewBox="0 0 600 600" style="enable-background:new 0 0 600 600;" xml:space="preserve">
<style type="text/css">
	.st0{fill:none;}
	.st1{fill:#BBE2FF;}
	.st2{fill:#3C90FF;}
	.st3{fill:#3C90FF;filter:url(#Adobe_OpacityMaskFilter);}
	.st4{mask:url(#a_2_);}
	.st5{fill:url(#path4_1_);}
	.st6{fill:#FFFFFF;}
</style>
<rect id="透明方底" class="st0" width="600" height="600"/>
<path id="path1" class="st1" d="M39.37,120.13C39.37,55.44,91.81,3,156.5,3h286.32c64.69,0,117.13,52.44,117.13,117.13v123.64
	c0,64.69-52.44,117.13-117.13,117.13H156.5c-64.69,0-117.13-52.44-117.13-117.13V120.13z"/>
<path id="path2" class="st2" d="M14.88,137.92C7.21,79.67,52.56,27.97,111.3,27.97h376.73c58.75,0,104.09,51.7,96.43,109.95
	l-22.94,174.35l22.94,174.35c7.66,58.25-37.68,109.95-96.43,109.95H111.3c-58.75,0-104.09-51.7-96.43-109.95l22.94-174.35
	L14.88,137.92z"/>
<defs>
	<filter id="Adobe_OpacityMaskFilter" filterUnits="userSpaceOnUse" x="-10.81" y="334.71" width="620.96" height="284.29">
		<feColorMatrix  type="matrix" values="1 0 0 0 0  0 1 0 0 0  0 0 1 0 0  0 0 0 1 0"/>
	</filter>
</defs>
<mask maskUnits="userSpaceOnUse" x="-10.81" y="334.71" width="620.96" height="284.29" id="a_2_">
	<path id="path3_2_" class="st3" d="M28.22,40.8c-1.46-11.12,7.19-20.99,18.41-20.99h71.92c11.22,0,19.87,9.87,18.41,20.99
		l-4.38,33.28l4.38,33.28c1.46,11.12-7.19,20.99-18.41,20.99H46.62c-11.22,0-19.87-9.87-18.41-20.99l4.38-33.28L28.22,40.8z"/>
</mask>
<g id="g4" transform="matrix(5.2383867,0,0,5.2383867,-102.88512,-41.907093)" class="st4">
	
		<linearGradient id="path4_1_" gradientUnits="userSpaceOnUse" x1="31.9833" y1="103.5837" x2="31.9833" y2="157.8547" gradientTransform="matrix(5.2384 0 0 5.2384 -90.6942 -470.7162)">
		<stop  offset="0" style="stop-color:#4FA0FF"/>
		<stop  offset="1" style="stop-color:#3186FF"/>
	</linearGradient>
	<path id="path4" class="st5" d="M17.58,126.17h118.54V71.9H17.58V126.17z"/>
</g>
<path id="path7" class="st6" d="M222.43,474.37c-15.67,0-29.1-2.55-40.31-7.64c-11.21-5.09-20.7-11.91-28.47-20.44
	c-7.64-8.66-13.06-17.13-16.24-25.41c-3.18-8.28-4.46-13.31-3.82-15.09c0.69-1.83,2.06-3.34,3.82-4.2l21.21-8.41
	c1.78-0.89,3.56-1.02,5.35-0.38c1.78,0.51,3.88,3.44,6.3,8.79c2.55,5.35,6.11,11.02,10.7,17.01c4.59,5.76,10.31,10.5,16.81,13.95
	c6.5,3.31,14.52,4.97,24.07,4.97c15.41,0,27.64-4.46,36.69-13.37c9.17-8.92,13.75-20.25,13.75-34.01c0-14.9-4.84-26.37-14.52-34.39
	c-9.68-8.15-22.48-12.23-38.4-12.23h-20.06c-1.84,0.03-3.62-0.65-4.97-1.91c-1.27-1.4-1.91-2.99-1.91-4.78v-20.44
	c0-1.91,0.64-3.51,1.91-4.78c1.3-1.36,3.1-2.12,4.97-2.1h17.38c14.27,0,25.73-3.89,34.39-11.66c8.66-7.77,12.99-17.83,12.99-30.19
	c0-12.22-3.89-22.1-11.66-29.61c-7.77-7.52-18.47-11.27-32.1-11.27c-7.64,0-14.27,1.27-19.87,3.82c-5.54,2.5-10.49,6.15-14.52,10.7
	c-3.98,4.34-7.5,9.07-10.51,14.14c-2.93,4.84-5.28,7.52-7.07,8.02c-1.78,0.38-3.5,0.06-5.16-0.95l-20.06-9.74
	c-1.66-0.89-2.74-2.29-3.25-4.2c-0.51-1.91,1.02-6.37,4.59-13.37c3.69-7.13,9.3-14.39,16.81-21.78c7.54-7.45,16.51-13.3,26.37-17.2
	c10.06-4.08,21.78-6.11,35.16-6.11c24.84,0,44.52,6.56,59.04,19.68c14.52,12.99,21.78,30.19,21.78,51.59
	c0,14.78-3.57,27.58-10.7,38.4c-7.01,10.82-16.94,18.47-29.81,22.93v0.76c15.54,4.58,27.77,12.99,36.68,25.22
	c9.05,12.1,13.57,26.56,13.56,43.37c0,24.08-8.41,43.82-25.22,59.23C271.34,466.66,249.44,474.37,222.43,474.37L222.43,474.37z
	 M414.14,469.97c-2.16,0-4.08-0.83-5.73-2.48c-1.51-1.6-2.33-3.72-2.29-5.92V249.11l-42.99,30.95c-1.53,1.15-3.32,1.53-5.35,1.15
	c-1.84-0.34-3.48-1.36-4.58-2.87l-12.42-17.58c-1.12-1.54-1.6-3.46-1.34-5.35c0.38-2.03,1.4-3.63,3.06-4.77l76.23-54.45
	c0.64-0.51,1.34-0.89,2.1-1.14c0.77-0.38,1.66-0.57,2.67-0.57h16.05c2.16,0,3.88,0.76,5.16,2.29c1.4,1.4,2.1,3.18,2.1,5.35v259.45
	c0,2.29-0.83,4.27-2.48,5.92c-1.46,1.62-3.55,2.53-5.73,2.48L414.14,469.97z"/>
</svg>
