<?xml version="1.0" encoding="utf-8"?>
<!-- Generator: Adobe Illustrator 25.3.1, SVG Export Plug-In . SVG Version: 6.00 Build 0)  -->
<svg version="1.1" id="图层_1" xmlns="http://www.w3.org/2000/svg" xmlns:xlink="http://www.w3.org/1999/xlink" x="0px" y="0px"
	 viewBox="0 0 600 600" style="enable-background:new 0 0 600 600;" xml:space="preserve">
<style type="text/css">
	.st0{fill:none;}
	.st1{fill:#255FDB;}
	.st2{fill:#4285F4;}
	.st3{fill:#91BFFF;}
	.st4{fill:#C4E1FF;}
	.st5{fill:#F5F5F5;}
</style>
<rect id="透明方底" class="st0" width="600" height="600"/>
<g transform="matrix(.0669245 0 0 .0669245 130.028 50)">
	<path class="st1" d="M1160.22,4672.55c-1520.27-2011.31-3081.08-482.94-2673.65,922.81
		c1024.82,2241.38,3672.62,3227.61,5914.01,2202.79c772.56-353.23,1428.28-919.67,1890.04-1632.69
		C5115.46,7266.12,2981.5,7082.19,1160.22,4672.55z"/>
	<path class="st2" d="M2519.34,3287.58C428.47,116.3-1915.29,1806.33-1915.29,3743.67c-0.85,641.62,137.47,1275.78,405.4,1858.78
		c-278.21-1313.01,1230.41-2325.5,2635.14-440.87c2039.69,2736.47,4041.39,2255.07,5161.31,1009.95
		c359.68-552.13,591.99-1177.37,680.07-1830.4v8.62C6485.72,5841.65,4363.43,6084.37,2519.34,3287.58L2519.34,3287.58z"/>
	<path class="st3" d="M3952.45,1868.66C2399.74-692.99,431-462.41-901.78,910.39c-656.97,797.87-1015.36,1799.75-1013.51,2833.28
		c139.36-1874.99,2407.1-3179.9,4459.46,0C4368.5,6573.92,6641.3,5836.57,6964.6,4357.85v-14.19
		c28.3-201.41,40.34-404.77,35.98-608.11v-202.7C6210.56,4098.39,5171.7,3879.99,3952.45,1868.66L3952.45,1868.66z"/>
	<path class="st4" d="M3963.1,2324.75c1421.95,2285.97,2647.8,1701.19,3040.53,1212.16c-15.88-341.71-71.14-680.43-164.69-1009.46
		c-662.83,13.69-817.4-96.79-1469.59-1090.03C4372.54-89.95,3116.8-1121.2,922.55-411.74C211.62-132.89-416.34,322.89-901.78,912.42
		C605.82-475.08,2455.48-98.56,3963.1,2324.75L3963.1,2324.75z"/>
	<path class="st5" d="M5272.05,1634.03c650.16,994.77,1045.93,1045.46,1566.88,893.42
		C6163.48,154.92,3692.59-1220.84,1320.08-545.38c-134.55,38.3-267.18,82.9-397.53,133.64
		C2882.68-1029.98,4272.72,106.17,5272.05,1634.03L5272.05,1634.03z"/>
</g>
</svg>
