<?xml version="1.0" standalone="no"?><!DOCTYPE svg PUBLIC "-//W3C//DTD SVG 1.1//EN" "http://www.w3.org/Graphics/SVG/1.1/DTD/svg11.dtd"><svg t="1781612033056" class="icon" viewBox="0 0 1024 1024" version="1.1" xmlns="http://www.w3.org/2000/svg" p-id="8129" xmlns:xlink="http://www.w3.org/1999/xlink" width="200" height="200"><path d="M1023.570317 532.055445c-10.496319 270.958637-230.304601 485.441957-499.061572 491.739749h-0.870426c-3.532907 0.102403-7.065815 0.153605-10.598723 0.153604h-0.66562c-0.512016 0-0.97283-0.051202-1.484845-0.051201s-1.689651 0.051202-1.689651 0.051201c-3.328101 0.051202-6.707404 0-10.035505-0.153604-0.460814 0-0.870426 0-1.331241-0.102403-85.19939-5.017753-151.556607-76.853536-149.150134-162.82095 2.355272-85.916212 72.603807-154.014282 157.956802-154.27029v-0.102403c1.63845 0 3.328101 0.051202 4.966551 0.051202 104.143966 0.307209 190.213782-81.717684 194.770721-186.066457h0.102403c-1.024031 85.352995 65.896403 156.625561 151.761414 160.414477 85.916212 3.737714 158.827228-61.441868 165.176221-146.538855 0.102403-0.768023 0.153605-1.536047 0.153605-2.30407z" fill="#1890D2" p-id="8130"></path><path d="M512.373976 1023.948798h-1.484845c0.512016-0.051202 0.97283 0 1.484845 0zM1023.979929 514.339706c0.051202 2.252868 0.051202 4.454535 0 6.707404 0 0.66562-0.051202 1.280039-0.102403 1.945659 0.102403-2.867287 0.102403-5.785776 0.102403-8.653063z" fill="#00FF00" p-id="8131"></path><path d="M1023.979929 513.827691v0.512015c0 2.867287 0 5.785776-0.102403 8.653063v0.153605c0 1.024031-0.102403 2.048062-0.153605 3.020892h0.102403c-0.051202 1.843256-0.102403 3.686512-0.204806 5.529768 0 0.102403 0 0.256008-0.051201 0.358411 0 0.768023 0 1.536047-0.153605 2.30407-6.348993 85.096987-79.26001 150.276568-165.176221 146.538855-85.86501-3.788915-152.785445-75.061482-151.761414-160.414477h-0.102403c4.710543-107.369664-78.491986-198.201225-185.86165-202.860567v-0.102403c-1.689651 0-3.430504 0-5.120156-0.153605-0.614419-0.051202-1.280039-0.051202-1.894458-0.153604C598.136583 313.834411 665.620235 244.149093 665.620235 158.693695S599.00701 4.474606 515.190062 0.276079c4.659342-0.256008 9.369885-0.256008 14.080428-0.051202 1.689651 0.102403 3.430504 0.204806 5.120155 0.358411V0.480885c275.66918 12.032366 490.766919 239.828091 489.589284 513.346806z" fill="#EA3939" p-id="8132"></path><path d="M1023.877526 523.146374v3.020892h-0.102403l0.153604-3.020892z" fill="#FF0000" p-id="8133"></path><path d="M665.620235 158.693695c0 85.455398-67.483652 155.140716-152.119825 158.520019-0.512016 0.051202-0.97283 0.102403-1.484845 0.102403v0.102403c-107.318462 0-194.361109 86.889041-194.565915 194.156302h-0.102403c-2.457675-85.301793-72.296598-153.758274-158.264011-153.96308C73.115823 357.406936 2.96969 425.556207 0.102403 510.858c0 0.358411-0.051202 0.768023 0 1.126435H0C0 232.987153 223.085182 6.164258 500.64882 0.122474c2.867287-0.102403 5.785776-0.153605 8.704264-0.102403a62.015325 62.015325 0 0 1 5.836978 0.256008C599.00701 4.474606 665.620235 73.801514 665.620235 158.693695z" fill="#4AAE48" p-id="8134"></path><path d="M0.153605 521.35432c-0.051202-1.433644-0.153605-2.816086-0.153605-4.24973 0-0.819225 0-1.689651 0.051202-2.560077-0.051202 2.252868 0 4.556939 0.102403 6.809807z" fill="#00FFFF" p-id="8135"></path><path d="M348.6826 860.871841c-2.406473 85.967413 63.950744 157.803197 149.150134 162.82095 0.460814 0.051202 0.870426 0.102403 1.331241 0.102403-272.085071-6.656202-491.227733-225.491655-498.856766-497.064711-0.102403-1.484845-0.102403-3.020892-0.153604-4.505737v-0.870426c-0.102403-2.252868-0.153605-4.556939-0.102403-6.809807v-1.024032c0-0.512016 0-1.024031 0.051201-1.536046-0.051202-0.358411 0-0.768023 0-1.126435 2.867287-85.301793 73.01342-153.451065 158.980833-153.246258 85.967413 0.204806 155.806337 68.661287 158.264011 153.96308H317.44965v0.409613c-0.051202 105.628811 84.175359 191.596225 189.189752 194.514713v0.102403c-85.352995 0.256008-155.60153 68.354078-157.956802 154.27029z" fill="#FED14B" p-id="8136"></path><path d="M509.19948 1023.948798h1.689651c-0.563217 0.051202-1.126434 0.051202-1.689651 0zM523.638319 1023.795194c-2.508876 0.153605-5.017753 0.204806-7.629032 0.204806-0.97283 0-1.996861 0-2.969691-0.051202 3.532907 0 7.065815-0.051202 10.598723-0.153604z" fill="#F7931E" p-id="8137"></path></svg>