<?xml version="1.0" encoding="utf-8"?>
<!-- Generator: Adobe Illustrator 25.3.1, SVG Export Plug-In . SVG Version: 6.00 Build 0)  -->
<svg version="1.1" id="图层_1" xmlns="http://www.w3.org/2000/svg" xmlns:xlink="http://www.w3.org/1999/xlink" x="0px" y="0px"
	 viewBox="0 0 600 600" style="enable-background:new 0 0 600 600;" xml:space="preserve">
<style type="text/css">
	.st0{fill:none;}
	.st1{fill:#3B88C3;}
	.st2{enable-background:new    ;}
	.st3{fill:#FFFFFF;}
</style>
<rect id="透明方底" class="st0" width="600" height="600"/>
<path class="st1" d="M600,533.3c0,36.8-29.8,66.7-66.7,66.7H66.7C29.9,600,0,570.2,0,533.3V66.7C0,29.9,29.9,0,66.7,0h466.7
	C570.2,0,600,29.9,600,66.7V533.3z"/>
<g class="st2">
	<path class="st3" d="M200.6,273.1v20.2h-27.8v-20.2h-13.9c-7,9.6-17.8,17.8-32.4,24.7l-8.6-24.7H95v20.2H67.2v-20.2h-8.4
		c-9,11.7-22.9,22.2-41.8,31.7l-7.9-27.1c20.5-11,32.4-24.6,35.8-40.8h30c-0.8,3.8-2.1,8.2-3.8,13.2h51.1v17.8
		c11.5-7.4,18.6-17.7,21.4-31H173c-0.6,4.6-1.6,9-2.9,13.2H228v23H200.6z M20.9,452.8V330.9h27.4v121.9H20.9z M33.8,299.2h30
		l16.6,26.9H49.7L33.8,299.2z M151.2,335.2c12.8,0,19.2,6.4,19.2,19.2v50.9c0,12.8-6.4,19.2-19.2,19.2H89
		c-12.8,0-19.2-6.4-19.2-19.2v-50.9c0-12.8,6.4-19.2,19.2-19.2H151.2z M220.8,425.7c0,17.3-8,26.3-24,27.1
		c-12.2,0.6-24.2-0.2-36.2-2.4l-5.8-21.8c12,2.1,22.4,2.8,31.2,2.2c2.9-0.3,4.8-1,5.8-2.2c1.1-1.3,1.7-3.5,1.7-6.7v-94.8
		c0-2.4-1.2-3.6-3.6-3.6H89.3l-2.4-23h117.8c5,0,8.9,1.5,11.8,4.6c2.9,3,4.3,7.1,4.3,12.2V425.7z M143.5,369.5v-9.1
		c0-2.4-1.2-3.6-3.6-3.6h-39.6c-2.4,0-3.6,1.2-3.6,3.6v9.1H143.5z M143.5,390.2H96.7v9.1c0,2.4,1.2,3.6,3.6,3.6h39.6
		c2.4,0,3.6-1.2,3.6-3.6V390.2z"/>
	<path class="st3" d="M277.8,372.7l-0.7-4h26.3c20.9-3.6,42.6-8.8,65.2-15.5h-73.1l-5.8-25.9h10.8c28.3-5.5,52.3-14.6,72-27.4h0.4
		l0.4-5h-76c-7,0-12.2-1.8-15.8-5.4c-3.4-3.4-4.8-7.8-4.3-13.3l2.2-26.6h-18.7l-2.9-22.3H281l1.8-23.8c0-3.4,1.1-6.7,3.2-10.1
		c-5.8,4.8-12.2,9.1-19.4,13l-10.1-28.8c15.4-8.9,25.9-21,31.7-36.4h39.6c-0.7,1.9-2.3,5-4.7,9.4h105.5V174H306.2
		c-2.6,3.1-5.9,6.5-9.7,10.1c2.9-1.2,5.5-1.8,7.9-1.8H397c6,0,11.2,2,15.5,6.1c4.3,4.1,6.4,9,6.1,14.8l-1.8,24.1h18.4v22.3H415
		l-1.8,24.1h13v21.2h-14.8L411,301l19.8,0.4c-11,9.8-28.3,18.5-51.8,25.9h56.5c12.2-5.8,24.4-12.6,36.4-20.5h50.4
		c-13.2,13.7-30.8,26-52.9,37.1c-20.4,10.1-43.2,18.4-68.4,24.8h113.8l-15.1-34.9h45l17.3,38.9c3.1,8.2,3.1,14.6,0,19.4
		c-3.4,4.8-9.2,7.2-17.6,7.2h-94V426c0,23.8-12.7,36.6-38.2,38.5c-16.6,1.2-34,0.5-52.2-2.2l-10.1-35.6c16.3,3.1,31.2,4.1,44.6,2.9
		c3.8-0.2,6.6-1.3,8.3-3.2c1.4-1.7,2.2-4.1,2.2-7.2v-19.8H283.6L277.8,372.7z M317,459.4h-45.4l20.9-49h44.6L317,459.4z
		 M376.8,249.5H317l-1.8,21.2c0,1.9,1.4,2.9,4.3,2.9H375L376.8,249.5z M378.2,227.2l1.4-18.7c0.2-1.4-0.1-2.6-1.1-3.6
		c-1-1-2.4-1.4-4.3-1.4H326c-1,0-2.2,0.7-3.6,2.2c-1.2,1.2-1.8,2.3-1.8,3.2l-1.4,18.4H378.2z M327.5,252.8h33.1l6.8,17.6h-33.1
		L327.5,252.8z M328.2,207.4H362l7.2,16.9h-33.8L328.2,207.4z M566.9,191.6c-4.6,26.4-16.1,49.6-34.6,69.5
		c15.4,8.9,32.9,15,52.6,18.4L574.8,319c-27.6-7.4-51.4-18.8-71.3-34.2c-18.7,12-41,21.1-67,27.4l-7.9-36
		c19.2-4.8,35-10.4,47.5-16.9c-10.3-12-18.4-24.4-24.1-37.1h-31c19-29.5,31-56.9,36-82.1h38.5c-1.7,6.7-3.8,14.3-6.5,22.7h92.2v28.8
		H566.9z M529.1,191.6h-51.5c-2.6,5.5-5.8,11.5-9.4,18h17.6c3.6,10.3,9.6,20.2,18,29.5C516.1,226.9,524.5,211,529.1,191.6z
		 M525.1,459.4l-20.2-49h44.6l20.9,49H525.1z"/>
</g>
</svg>
