<?xml version="1.0" encoding="utf-8"?>
<!-- Generator: Adobe Illustrator 25.3.1, SVG Export Plug-In . SVG Version: 6.00 Build 0)  -->
<svg version="1.1" id="图层_1" xmlns="http://www.w3.org/2000/svg" xmlns:xlink="http://www.w3.org/1999/xlink" x="0px" y="0px"
	 viewBox="0 0 600 600" style="enable-background:new 0 0 600 600;" xml:space="preserve">
<style type="text/css">
	.st0{fill:none;}
	.st1{fill:#3B88C3;}
	.st2{fill:#FFFFFF;}
</style>
<rect id="透明方底" class="st0" width="600" height="600"/>
<path class="st1" d="M600,533.33c0,36.82-29.85,66.67-66.67,66.67H66.67C29.85,600,0,570.15,0,533.33V66.67C0,29.85,29.85,0,66.67,0
	h466.67C570.15,0,600,29.85,600,66.67V533.33z"/>
<g>
	<path class="st2" d="M454.95,171.91v40.33h-52.57v-40.33h-25.83c-16.31,23.57-36.86,42.15-61.63,55.74l-16.77-52.12
		c1.81-1.2,3.63-2.41,5.44-3.63h-43.5v38.97h-52.57v-38.97h-20.39c-17.52,26.28-42.9,48.49-76.13,66.62l-16.77-51.21
		c37.16-25.07,59.21-54.68,66.16-88.82h57.1c-2.42,11.49-5.29,21.46-8.61,29.91h99.25v39.88c21.75-16.92,36.25-40.18,43.51-69.79
		h57.1c-2.72,10.58-5.89,20.55-9.52,29.91h107.4v43.5H454.95z M202.98,507.71h-53.47V369.04h-38.52l-13.6-50.3
		c43.5-27.79,71.3-59.97,83.38-96.53h51.21c-10.58,47.13-39.43,85.5-86.56,115.11h32.63c16.61,0,24.92,9.06,24.92,27.19V507.71z
		 M450.87,317.38v130.51c0,15.71-3.93,28.25-11.78,37.61c-8.16,9.67-19.64,15.41-34.44,17.22c-26.28,1.51-53.63-0.76-82.02-6.8
		l-12.24-47.13c26.58,6.05,50.3,8.16,71.15,6.34c9.97-1.2,14.95-6.95,14.95-17.22V317.38H224.28l-4.53-45.32h176.74v-46.68h54.38
		v46.68h58.91v45.32H450.87z M236.97,337.32h50.76l28.55,86.56h-50.76L236.97,337.32z"/>
</g>
</svg>
