<?xml version="1.0" encoding="utf-8"?>
<!-- Generator: Adobe Illustrator 25.3.1, SVG Export Plug-In . SVG Version: 6.00 Build 0)  -->
<svg version="1.1" id="图层_1" xmlns="http://www.w3.org/2000/svg" xmlns:xlink="http://www.w3.org/1999/xlink" x="0px" y="0px"
	 viewBox="0 0 600 600" style="enable-background:new 0 0 600 600;" xml:space="preserve">
<style type="text/css">
	.st0{fill:none;}
	.st1{fill:#3B88C3;}
	.st2{fill:#FDFEFF;}
</style>
<rect id="透明方底" class="st0" width="600" height="600"/>
<path class="st1" d="M600,533.3c0,36.8-29.8,66.7-66.7,66.7H66.7C29.9,600,0,570.2,0,533.3V66.7C0,29.9,29.9,0,66.7,0h466.7
	C570.2,0,600,29.9,600,66.7V533.3z"/>
<path class="st2" d="M490.2,450.4h-9.9L329.7,103.6c-4-7.9-9.9-11.9-17.8-11.9h-45.6c-7.9,0-15.9,5.9-17.8,11.9L117.7,450.4h-7.9
	c-11.9,0-19.8,7.9-19.8,19.8c0,11.9,7.9,19.8,19.8,19.8h65.4c11.9,0,19.8-7.9,19.8-19.8c0-11.9-7.9-19.8-19.8-19.8h-13.9L189,379
	h130.8l29.7,71.3h-13.9c-11.9,0-19.8,7.9-19.8,19.8c0,11.9,7.9,19.8,19.8,19.8h154.5c11.9,0,19.8-7.9,19.8-19.8
	C510,458.3,502.1,450.4,490.2,450.4z M202.9,337.4l45.6-122.8L300,337.4H202.9z M391.1,450.4L268.3,161.1l11.9-29.7H298l138.7,319
	H391.1L391.1,450.4z"/>
</svg>
