<?xml version="1.0" encoding="utf-8"?>
<!-- Generator: Adobe Illustrator 25.3.1, SVG Export Plug-In . SVG Version: 6.00 Build 0)  -->
<svg version="1.1" id="图层_1" xmlns="http://www.w3.org/2000/svg" xmlns:xlink="http://www.w3.org/1999/xlink" x="0px" y="0px"
	 viewBox="0 0 600 600" style="enable-background:new 0 0 600 600;" xml:space="preserve">
<style type="text/css">
	.st0{fill:none;}
	.st1{fill:#DD4B39;}
</style>
<rect id="透明方底" class="st0" width="600" height="600"/>
<path class="st1" d="M275.67,138.58h-63.31V260.8c23.6,7.65,44.27,19.2,63.31,32.87V138.58z M587,194.89
	c-3.74-3.42-7.16-6.35-10.25-8.95c-16.27-13.83-33.69-26.69-53.54-36.94c-20.51-10.58-43.29-18.06-69.33-20.51
	c-66.73-6.18-113.27,16.93-136.71,48.99c-10.9,15.14-16.93,32.22-17.9,49.48c-0.81,17.41,3.42,34.99,13.02,51.1
	c20.02,33.36,63.47,59.4,130.85,59.4c42.64,0,67.7,12.86,77.63,29.13c3.09,5.21,4.39,10.74,4.07,16.11
	c-0.16,5.37-2.28,10.9-5.86,15.95c-11.88,16.27-38.9,27.67-81.05,23.76c-17.09-1.63-32.39-6.67-46.38-14
	c-14.81-7.65-28.64-17.9-41.83-28.97c-10.09-8.63-17.58-15.46-25.23-22.3c-61.36-55.66-123.85-112.13-248.51-80.56V138.58H12.67
	v335.58h63.31V341.2c59.24-17.58,101.55-9.93,136.38,8.14v93.58c0,17.25,14,31.25,31.08,31.25h32.22v-31.25v-46.38l7.16,6.51
	c9.6,8.79,19.37,17.58,26.69,23.76c16.27,13.83,33.69,26.69,53.54,36.94c20.51,10.58,43.29,18.06,69.33,20.51
	c66.73,6.18,113.27-16.93,136.71-48.99c10.9-15.14,16.93-32.22,17.9-49.48v-9.28c-0.81-14.32-5.05-28.64-13.02-41.83
	c-20.02-33.36-63.47-59.57-130.85-59.57c-42.64,0-67.7-12.69-77.63-28.97c-2.93-5.21-4.39-10.74-4.07-16.11
	c0.16-5.37,2.28-10.9,5.86-15.95c11.88-16.27,38.9-27.67,81.05-23.76c17.09,1.63,32.39,6.67,46.38,14
	c14.81,7.65,28.64,17.9,41.83,28.97c10.09,8.63,17.58,15.46,25.23,22.3c8.3,7.65,16.6,15.14,25.23,22.46V194.89z"/>
</svg>
