<?xml version="1.0" encoding="utf-8"?>
<!-- Generator: Adobe Illustrator 25.3.1, SVG Export Plug-In . SVG Version: 6.00 Build 0)  -->
<svg version="1.1" id="图层_1" xmlns="http://www.w3.org/2000/svg" xmlns:xlink="http://www.w3.org/1999/xlink" x="0px" y="0px"
	 viewBox="0 0 600 600" style="enable-background:new 0 0 600 600;" xml:space="preserve">
<style type="text/css">
	.st0{fill:none;}
	.st1{fill:#3B88C3;}
	.st2{enable-background:new    ;}
	.st3{fill:#FFFFFF;}
</style>
<rect id="透明方底" class="st0" width="600" height="600"/>
<path class="st1" d="M600,533.3c0,36.8-29.8,66.7-66.7,66.7H66.7C29.9,600,0,570.2,0,533.3V66.7C0,29.9,29.9,0,66.7,0h466.7
	C570.2,0,600,29.9,600,66.7V533.3z"/>
<g class="st2">
	<path class="st3" d="M91.9,178.7v-69.4H183v69.4H91.9z M91.9,508V220.9H183V508H91.9z"/>
	<path class="st3" d="M413.9,366.9h-59.4v141h-97.2V112.6h156.6c87.7,0,134.9,62.2,134.9,127.1C548.9,304.7,501.7,366.9,413.9,366.9
		z M409.5,199.8h-55v80h55c26.7,0,42.2-19.4,42.2-40C451.7,219.2,436.1,199.8,409.5,199.8z"/>
</g>
</svg>
