<?xml version="1.0" encoding="utf-8"?>
<!-- Generator: Adobe Illustrator 25.3.1, SVG Export Plug-In . SVG Version: 6.00 Build 0)  -->
<svg version="1.1" id="图层_1" xmlns="http://www.w3.org/2000/svg" xmlns:xlink="http://www.w3.org/1999/xlink" x="0px" y="0px"
	 viewBox="0 0 600 600" style="enable-background:new 0 0 600 600;" xml:space="preserve">
<style type="text/css">
	.st0{fill:none;}
	.st1{fill:#3B88C3;}
	.st2{enable-background:new    ;}
	.st3{fill:#FFFFFF;}
</style>
<rect id="透明方底" class="st0" width="600" height="600"/>
<path class="st1" d="M600,533.3c0,36.8-29.8,66.7-66.7,66.7H66.7C29.9,600,0,570.2,0,533.3V66.7C0,29.9,29.9,0,66.7,0h466.7
	C570.2,0,600,29.9,600,66.7V533.3z"/>
<g class="st2">
	<path class="st3" d="M274.2,187.9v310.8h-97.8V187.9H78.5v-87.2H372v87.2H274.2z"/>
</g>
<g>
	<path class="st3" d="M301.3,395.4l28.2-15h17.7v120H326v-99.5l-24.7,13.2V395.4z"/>
	<path class="st3" d="M452.7,500.4h-78v-14.7l42.5-44.3c5-5.3,8.5-9.8,10.5-13.5s3-7.8,3-12.3c0-12.2-6.5-18.3-19.5-18.3h-0.7
		c-10.2,0-18.2,5.6-24,16.7l-14.2-12.5c10-15.3,23-23,39-23h0.3c13,0,22.9,3.2,29.8,9.7c6.8,6.3,10.2,15.3,10.2,27
		c0.2,12.3-5.3,24-16.7,35l-32.8,33.2h50.5V500.4z"/>
	<path class="st3" d="M513.8,398.7h-44.3v-18.3h70.3v16l-31,30.3c1.1,0,1.9-0.1,2.5-0.2c9.4,0,17.6,3.3,24.5,9.8
		c6.8,6.7,10.2,15.7,10.2,27.2c0,12.1-4,21.6-12,28.3c-8,7-18.4,10.5-31.2,10.5h-1.3c-15.1,0-26.6-5.5-34.5-16.5l12.2-14.7
		c6.3,8.1,14,12.2,23,12.2h0.7c14.8,0,22.2-6.6,22.2-19.8c0-6.7-2.2-11.7-6.7-15.2c-4.2-3.2-9.9-4.8-17.2-4.8h-0.7
		c-5.1,0-10.3,0.5-15.7,1.5v-16.3L513.8,398.7z"/>
</g>
</svg>
