<?xml version="1.0" encoding="utf-8"?>
<!-- Generator: Adobe Illustrator 25.3.1, SVG Export Plug-In . SVG Version: 6.00 Build 0)  -->
<svg version="1.1" id="图层_1" xmlns="http://www.w3.org/2000/svg" xmlns:xlink="http://www.w3.org/1999/xlink" x="0px" y="0px"
	 viewBox="0 0 600 600" style="enable-background:new 0 0 600 600;" xml:space="preserve">
<style type="text/css">
	.st0{fill:none;}
	.st1{fill:#3B88C3;}
	.st2{enable-background:new    ;}
	.st3{fill:#FFFFFF;}
</style>
<rect id="透明方底" class="st0" width="600" height="600"/>
<path class="st1" d="M600,533.3c0,36.8-29.8,66.7-66.7,66.7H66.7C29.9,600,0,570.2,0,533.3V66.7C0,29.9,29.9,0,66.7,0h466.7
	C570.2,0,600,29.9,600,66.7V533.3z"/>
<g class="st2">
	<path class="st3" d="M198.5,258l-89.3,38.1l-13.6-49.8l102.9-43.5V98.9h53.5v218.9h-53.5V258z M340.3,384
		c24.5,35.1,80.8,58.9,169,71.6l-14,52.6c-91.5-15.7-154.5-43.8-189-84.3c-32.6,41.4-97.7,69.5-195.3,84.3l-14-51.2
		c92.7-12.7,149.5-37,170.4-73H116l-4.5-46.2h165v-21.3h54.4v21.3h166.3V384H340.3z M111.4,117.5h50.8l25.4,77.9h-50.8L111.4,117.5z
		 M382.9,125.7h89.3c19.9,0,29.9,10.4,29.9,31.3c0,7.9-2.4,17.4-7.2,28.6c-15.7,36.9-39.3,64.4-70.7,82.5
		c-31.4,17.8-79.2,32.8-143.2,44.9L262.8,263c45-6.6,81.7-16,110.1-28.1L319,218.6v-21.8c-10.9,6.6-24.5,13.6-40.8,20.8l-19.5-50.3
		c39.6-15.1,64.2-37.8,73.9-68h58.9C389.1,109.4,386.2,118.1,382.9,125.7z M421,204.1c9.7-9.1,17.1-20.1,22.2-33.1h-90.6
		c-3.9,3.9-7.1,6.8-9.5,8.6L421,204.1z"/>
</g>
</svg>
