<?xml version="1.0" encoding="utf-8"?>
<!-- Generator: Adobe Illustrator 25.3.1, SVG Export Plug-In . SVG Version: 6.00 Build 0)  -->
<svg version="1.1" id="图层_1" xmlns="http://www.w3.org/2000/svg" xmlns:xlink="http://www.w3.org/1999/xlink" x="0px" y="0px"
	 viewBox="0 0 600 600" style="enable-background:new 0 0 600 600;" xml:space="preserve">
<style type="text/css">
	.st0{fill:none;}
	.st1{fill:#3B88C3;}
	.st2{enable-background:new    ;}
	.st3{fill:#FFFFFF;}
</style>
<rect id="透明方底" class="st0" width="600" height="600"/>
<path class="st1" d="M600,533.33c0,36.82-29.85,66.67-66.67,66.67H66.67C29.85,600,0,570.15,0,533.33V66.67C0,29.85,29.85,0,66.67,0
	h466.67C570.15,0,600,29.85,600,66.67V533.33z"/>
<g class="st2">
	<path class="st3" d="M252.99,449.03L238.04,401h-99.24l-15.86,48.04H40l117.37-322.66h61.18l117.37,322.66H252.99z M190,248.73
		l-29,86.1h56.19L190,248.73z"/>
	<path class="st3" d="M482.3,449.03v-19.94c-14.96,14.95-28.55,22.21-54.38,22.21c-24.47,0-44.86-8.16-58.46-21.75
		c-14.05-14.05-21.3-34.44-21.3-57.1c0-36.71,24.92-70.69,82.93-70.69h49.4v-6.34c0-22.21-10.88-30.36-36.71-30.36
		c-19.03,0-27.19,4.53-38.97,16.31l-46.22-46.22c24.92-24.92,47.58-32.63,88.82-32.63c69.79,0,107.4,29,107.4,88.37v158.16H482.3z
		 M480.48,351.15h-37.61c-14.5,0-23.57,8.16-23.57,19.49c0,10.88,8.16,20.39,24.47,20.39c14.5,0,21.3-1.36,29.46-9.06
		c5.44-4.98,7.25-12.69,7.25-24.47V351.15z"/>
</g>
</svg>
