<?xml version="1.0" encoding="utf-8"?>
<!-- Generator: Adobe Illustrator 25.3.1, SVG Export Plug-In . SVG Version: 6.00 Build 0)  -->
<svg version="1.1" id="图层_1" xmlns="http://www.w3.org/2000/svg" xmlns:xlink="http://www.w3.org/1999/xlink" x="0px" y="0px"
	 viewBox="0 0 600 600" style="enable-background:new 0 0 600 600;" xml:space="preserve">
<style type="text/css">
	.st0{fill:none;}
	.st1{display:none;fill:none;stroke:#FF0000;stroke-miterlimit:10;}
	.st2{fill:#00F9E5;}
	.st3{fill:#FFFFFF;}
	.st4{fill:#0C6066;}
	.st5{fill:#1E1E1E;}
	.st6{fill:url(#SVGID_1_);}
	.st7{fill:url(#SVGID_2_);}
</style>
<rect id="透明方底" class="st0" width="600" height="600"/>
<circle id="圆框" class="st1" cx="299.96" cy="300.02" r="299.54"/>
<path class="st2" d="M546.16,326.18c3.99,5.49,5.98,11.97,5.49,18.45c-5.49,133.66-115.71,240.39-250.87,240.39
	S55.39,478.3,49.91,344.64c-0.5-6.48,1.5-12.97,5.49-18.45L279.83,28.43c11.47-14.96,33.91-14.96,45.39,0
	C325.22,28.43,546.16,326.18,546.16,326.18z"/>
<path class="st3" d="M220.48,424.94c-50.87,45.88-128.68,41.89-174.56-8.48C0.03,365.58,4.02,287.78,54.4,241.9
	c50.87-45.88,128.68-41.89,174.56,8.48S271.35,379.05,220.48,424.94z"/>
<path class="st4" d="M137.69,468.33c-36.91,0-73.81-14.96-100.25-44.39c-49.87-55.36-45.88-141.14,9.48-191.02
	c26.93-24.44,61.35-36.91,97.26-34.91s69.33,17.46,93.76,44.39c49.87,55.36,45.88,141.14-9.48,191.02
	C202.52,456.86,170.11,468.33,137.69,468.33z M137.19,220.95c-27.93,0-54.36,9.97-75.31,28.93c-45.88,41.4-49.38,112.72-7.98,158.6
	c19.95,22.44,47.88,35.41,77.8,36.91s58.85-8.98,80.8-28.93c45.88-41.4,49.38-112.72,7.98-158.6
	c-19.95-22.44-47.88-35.41-77.8-36.91C142.67,220.95,137.19,220.95,137.19,220.95z"/>
<path class="st5" d="M92.8,283.79c-26.93,24.44-28.93,65.83-4.49,92.27c24.44,26.93,65.83,28.93,92.27,4.49
	c8.98-7.98,14.96-17.95,18.45-28.43L92.8,283.79z"/>
<path class="st4" d="M133.2,205.99L269.85,17.96C277.34,7.98,288.81,2,301.28,2s23.94,5.98,31.42,15.96l134.66,188.53l-26.93,1.99
	L315.24,31.92c-2.99-3.99-7.98-6.48-13.47-6.48s-9.97,2.49-12.97,6.48L157.64,211.47L133.2,205.99z M90.31,448.88
	c11.47,21.94,26.93,41.89,45.39,59.85c44.39,42.39,102.74,66.33,164.09,66.33s119.7-23.44,164.09-66.33
	c19.95-18.95,35.91-40.9,47.88-64.84l32.42-17.46c-13.47,36.91-35.41,70.82-64.34,98.75C430.95,572.07,367.11,598,299.78,598
	c-67.1,0.05-131.62-25.87-180.05-72.32c-28.43-27.43-49.87-59.85-63.34-95.76C56.39,429.92,90.31,448.88,90.31,448.88z"/>
<linearGradient id="SVGID_1_" gradientUnits="userSpaceOnUse" x1="-880.2387" y1="1613.087" x2="-875.2483" y2="1613.087" gradientTransform="matrix(33.9116 33.9116 -33.9116 33.9116 84644.4375 -24645.4375)">
	<stop  offset="0" style="stop-color:#00F9E5"/>
	<stop  offset="0.568" style="stop-color:#299DF4"/>
	<stop  offset="1" style="stop-color:#4A54FF"/>
</linearGradient>
<path class="st6" d="M250.9,383.04c19.45-44.89,11.47-99.25-25.44-136.66C179.58,200,104.27,197.51,55.39,240.4
	c-3.49,3.49-6.98,6.48-10.47,10.47c-1,1-0.5,2.49,0.5,2.99l201.99,130.17C248.41,384.54,250.4,384.04,250.9,383.04z"/>
<path class="st4" d="M250.9,383.04l10.47,4.49c7.48-17.46,11.47-35.91,11.47-54.36c0-34.41-12.97-68.83-38.9-95.26
	c-26.43-26.43-61.35-39.9-96.26-39.9c-31.92,0-64.34,10.97-89.77,33.91c-3.99,3.49-7.98,7.48-11.47,10.97
	c-2.49,2.99-3.49,5.98-3.49,9.48c0,4.49,1.99,8.98,6.48,11.47l201.49,129.67c2.49,1.5,4.99,1.99,7.48,1.99
	c2.49,0,4.99-0.5,7.48-1.99c1.99-1.5,3.99-3.49,5.49-5.98L250.9,383.04l-10.47-4.49l8.48,3.99l-4.99-7.98
	c-1.5,1-2.99,2.49-3.49,3.99l8.48,3.99l-4.99-7.98l4.99,7.98v-9.48c-1.99,0-3.49,0.5-4.99,1.5l4.99,7.98v-9.48v9.48l4.99-7.98
	c-1.5-1-3.49-1.5-4.99-1.5v9.48l4.99-7.98L51.9,244.39l-4.99,7.98h9.48c0-2.99-1.5-5.98-4.49-7.98l-4.99,7.98h9.48h-9.48l6.98,6.48
	c1.5-1.99,2.49-3.99,2.49-6.48h-9.48l6.98,6.48c2.99-2.99,5.98-6.48,9.48-9.48c20.95-18.45,47.38-27.93,74.31-27.93
	c28.93,0,58.35,10.97,79.8,32.92c21.94,21.94,32.42,50.37,32.42,78.8c0,15.46-2.99,30.92-9.48,44.89L250.9,383.04L250.9,383.04z"/>
<path class="st3" d="M380.08,424.94c50.87,45.88,128.68,41.89,174.56-8.48c45.88-50.87,41.89-128.68-8.48-174.56
	c-50.87-45.88-128.68-41.89-174.56,8.48S329.21,379.05,380.08,424.94z"/>
<path class="st4" d="M372.1,433.41c-55.36-49.87-59.35-135.66-9.48-191.02c24.44-26.93,57.36-42.39,93.76-44.39
	c35.91-1.99,70.82,10.47,97.26,34.91c55.36,49.87,59.35,135.66,9.48,191.02c-26.43,29.43-63.34,44.39-100.25,44.39
	C430.45,468.33,398.03,456.86,372.1,433.41z M457.38,220.95c-29.92,1.5-57.36,14.46-77.8,36.91c-41.4,45.88-37.9,117.21,7.98,158.6
	c22.44,19.95,50.87,30.42,80.8,28.93c29.92-1.5,57.36-14.46,77.8-36.91c41.4-45.88,37.9-117.21-7.98-158.6
	c-20.95-18.95-47.38-28.93-75.31-28.93C462.87,220.95,457.38,220.95,457.38,220.95z"/>
<path class="st5" d="M507.76,283.29c26.93,24.44,28.93,65.83,4.49,92.27c-24.44,26.93-65.83,28.93-92.27,4.49
	c-8.98-7.98-14.96-17.95-18.45-28.43C401.52,351.62,507.76,283.29,507.76,283.29z"/>
<linearGradient id="SVGID_2_" gradientUnits="userSpaceOnUse" x1="-971.8383" y1="1704.6774" x2="-966.8508" y2="1704.6774" gradientTransform="matrix(-33.9116 33.9116 33.9116 33.9116 -90256.25 -24645.5059)">
	<stop  offset="0" style="stop-color:#00F9E5"/>
	<stop  offset="0.568" style="stop-color:#299DF4"/>
	<stop  offset="1" style="stop-color:#4A54FF"/>
</linearGradient>
<path class="st7" d="M349.65,382.54c-19.45-44.89-11.47-99.25,25.44-136.66c45.88-46.38,121.19-48.88,170.07-5.98
	c3.49,3.49,6.98,6.48,10.47,10.47c1,1,0.5,2.49-0.5,2.99L353.14,383.54C351.65,384.54,350.15,384.04,349.65,382.54z"/>
<path class="st4" d="M349.65,382.54l10.47-4.49c-6.48-14.46-9.48-29.43-9.48-44.89c0-28.43,10.47-56.86,32.42-78.8
	c21.45-21.94,50.87-32.92,79.8-32.92c26.43,0,52.87,9.48,74.31,27.93c3.49,2.99,6.48,5.98,9.48,9.48l6.98-6.48h-9.48
	c0,1.99,1,4.49,2.49,6.48l6.98-6.48h-9.48h9.48l-4.99-7.98c-2.49,1.99-4.49,4.99-4.49,7.98h9.48l-4.99-7.98L346.66,374.06l4.99,7.98
	v-9.48c-1.5,0-3.49,0.5-4.99,1.5l4.99,7.98v-9.48v9.48l4.99-7.98c-1.5-1-2.99-1.5-4.99-1.5v9.48l4.99-7.98l-4.99,7.98l8.48-3.99
	c-1-1.99-1.99-3.49-3.49-3.99l-4.99,7.98l8.48-3.99L349.65,382.54l-10.47,4.49c1,2.49,2.99,4.99,5.49,5.98
	c1.99,1.5,4.99,1.99,7.48,1.99s4.99-0.5,7.48-1.99l201.99-130.17c3.99-2.49,5.98-6.98,5.98-11.47c0-2.99-1-6.48-3.49-8.98
	c-3.49-3.99-7.48-7.48-11.47-10.97c-25.44-22.44-57.85-33.91-89.77-33.91c-34.91,0-70.32,13.47-96.26,39.9
	c-25.93,26.43-38.9,60.85-38.9,95.26c0,18.45,3.99,36.91,11.47,54.36C339.18,387.03,349.65,382.54,349.65,382.54z"/>
</svg>
