<?xml version="1.0" encoding="utf-8"?>
<!-- Generator: Adobe Illustrator 25.3.1, SVG Export Plug-In . SVG Version: 6.00 Build 0)  -->
<svg version="1.1" id="图层_1" xmlns="http://www.w3.org/2000/svg" xmlns:xlink="http://www.w3.org/1999/xlink" x="0px" y="0px"
	 viewBox="0 0 600 600" style="enable-background:new 0 0 600 600;" xml:space="preserve">
<style type="text/css">
	.st0{fill:none;}
	.st1{fill:#7B83EB;}
	.st2{opacity:0.1;enable-background:new    ;}
	.st3{opacity:0.2;enable-background:new    ;}
	.st4{fill:#5059C9;}
	.st5{fill:#4B53BC;}
	.st6{fill:#FFFFFF;}
</style>
<rect id="透明方底" class="st0" width="600" height="600"/>
<circle class="st1" cx="318.75" cy="109.88" r="87.51"/>
<path class="st2" d="M312.51,128.63h-79.26l0.39,1.74l0.04,0.15l0.41,1.61c11.97,45.37,57.57,73.25,103.41,63.23v-41.74
	C337.46,139.83,326.29,128.67,312.51,128.63z"/>
<path class="st3" d="M293.76,147.38h-54.08c14.49,30.54,45.27,50.01,79.07,50.01v-25.01C318.71,158.58,307.54,147.42,293.76,147.38z
	"/>
<circle class="st4" cx="515.62" cy="138" r="65.62"/>
<path class="st4" d="M571.88,222.38H424.48c-6.63,0-12,5.37-12,12v152.06c-0.84,45.36,30.18,85.11,74.38,95.33
	c50.73,10.65,100.49-21.85,111.14-72.59c1.33-6.32,2-12.76,2-19.21V250.5C600,234.97,587.41,222.38,571.88,222.38z"/>
<path class="st1" d="M468.75,250.5v178.12c0.05,82.79-67.03,149.94-149.82,149.99c-53.6,0.03-103.14-28.56-129.93-74.99
	c-3.61-6-6.74-12.27-9.38-18.75c-2.45-6.11-4.52-12.38-6.19-18.75c-3.09-12.26-4.67-24.86-4.69-37.5V250.5
	c-0.02-15.51,12.54-28.1,28.05-28.12c0.03,0,0.05,0,0.08,0h243.75c15.51-0.02,28.1,12.54,28.12,28.05
	C468.75,250.45,468.75,250.48,468.75,250.5z"/>
<path class="st3" d="M293.76,147.38h-54.08c14.49,30.54,45.27,50.01,79.07,50.01v-25.01C318.71,158.58,307.54,147.42,293.76,147.38z
	"/>
<path class="st2" d="M337.5,222.38v237.56c0,11.65-8.12,21.72-19.5,24.19c-1.76,0.52-3.6,0.78-5.44,0.75H179.62
	c-2.45-6.11-4.52-12.38-6.19-18.75c-3.09-12.26-4.67-24.86-4.69-37.5V250.5c-0.02-15.51,12.54-28.1,28.05-28.12
	c0.03,0,0.05,0,0.08,0H337.5z"/>
<path class="st3" d="M318.75,222.38v256.31c0.03,1.84-0.23,3.67-0.75,5.44c-2.47,11.38-12.54,19.5-24.19,19.5H189
	c-3.61-6-6.74-12.27-9.38-18.75c-2.45-6.11-4.52-12.38-6.19-18.75c-3.09-12.26-4.67-24.86-4.69-37.5V250.5
	c-0.02-15.51,12.54-28.1,28.05-28.12c0.03,0,0.05,0,0.08,0H318.75z"/>
<path class="st3" d="M318.75,222.38v218.81c-0.06,13.75-11.19,24.88-24.94,24.94H173.44c-3.09-12.26-4.67-24.86-4.69-37.5V250.5
	c-0.02-15.51,12.54-28.1,28.05-28.12c0.03,0,0.05,0,0.08,0H318.75z"/>
<path class="st3" d="M196.88,222.38c-15.51-0.02-28.1,12.54-28.12,28.05c0,0.03,0,0.05,0,0.08v178.12
	c0.02,12.64,1.6,25.24,4.69,37.5h101.62c13.75-0.06,24.88-11.19,24.94-24.94V222.38H196.88z"/>
<path class="st5" d="M24.99,147.38h250.01c13.8,0,24.99,11.19,24.99,24.99l0,0v250.01c0,13.8-11.19,24.99-24.99,24.99c0,0,0,0,0,0
	H24.99C11.19,447.38,0,436.19,0,422.38c0,0,0,0,0,0V172.37C0,158.57,11.19,147.38,24.99,147.38
	C24.99,147.38,24.99,147.38,24.99,147.38z"/>
<path class="st6" d="M224.62,240.66h-56.06v150.38h-36.79V240.66h-56.4v-36.94h149.25V240.66z"/>
</svg>
