<?xml version="1.0" encoding="utf-8"?>
<!-- Generator: Adobe Illustrator 25.3.1, SVG Export Plug-In . SVG Version: 6.00 Build 0)  -->
<svg version="1.1" id="图层_1" xmlns="http://www.w3.org/2000/svg" xmlns:xlink="http://www.w3.org/1999/xlink" x="0px" y="0px"
	 viewBox="0 0 600 600" style="enable-background:new 0 0 600 600;" xml:space="preserve">
<style type="text/css">
	.st0{fill:none;}
	.st1{display:none;fill:none;stroke:#FF0000;stroke-miterlimit:10;}
	.st2{fill:#F26533;}
</style>
<rect id="透明方底" class="st0" width="600" height="600"/>
<circle id="圆框" class="st1" cx="299.96" cy="300.02" r="299.54"/>
<path class="st2" d="M515.75,307.44c0,10.95-5.47,12.28-19.16,12.28c-15.01,0-17.75-2.74-19.16-13.68
	c-2.74-28.7-21.89-53.33-54.73-54.73c-9.54-1.33-12.28-4.07-12.28-17.75c0-12.28,1.33-17.75,10.95-17.75
	C476.11,217.13,515.75,262.33,515.75,307.44z M596.44,307.44c0-84.84-57.47-175.14-191.56-175.14H140.83
	c-5.47,0-8.21,2.74-8.21,8.21c0,2.74,1.33,5.47,4.07,6.8c9.54,8.21,23.22,16.42,42.38,25.96c17.75,9.54,32.84,15.01,46.52,20.49
	c5.47,2.74,8.21,5.47,8.21,8.21c0,4.07-2.74,8.21-9.54,8.21H13.54c-6.8,0-9.54,4.07-9.54,8.21c0,4.14,1.33,6.8,4.07,9.54
	c16.42,17.75,43.79,39.64,83.43,64.27c34.17,21.89,77.96,45.12,112.2,61.54c5.47,2.74,8.21,5.47,8.21,9.54c0,4.07-2.74,6.8-9.54,6.8
	h-97.11c-5.47,0-8.21,2.74-8.21,6.8c0,2.74,1.33,5.47,4.07,8.21c21.89,20.49,57.47,41.05,103.99,61.54
	C268.05,472.58,330.99,489,402.14,489c135.42-1.33,194.3-102.58,194.3-181.95L596.44,307.44z M419.97,429.18
	c-65.68,0-121.74-53.33-121.74-121.74s54.73-119,121.74-119s121.74,53.33,121.74,119C541.71,374.45,488.38,429.18,419.97,429.18z"/>
</svg>
