<?xml version="1.0" encoding="utf-8"?>
<!-- Generator: Adobe Illustrator 25.3.1, SVG Export Plug-In . SVG Version: 6.00 Build 0)  -->
<svg version="1.1" id="图层_1" xmlns="http://www.w3.org/2000/svg" xmlns:xlink="http://www.w3.org/1999/xlink" x="0px" y="0px"
	 viewBox="0 0 600 600" style="enable-background:new 0 0 600 600;" xml:space="preserve">
<style type="text/css">
	.st0{fill:none;}
	.st1{display:none;fill:none;stroke:#FF0000;stroke-miterlimit:10;}
	.st2{fill-rule:evenodd;clip-rule:evenodd;fill:#6B75FF;}
	.st3{fill-rule:evenodd;clip-rule:evenodd;fill:#332797;}
</style>
<rect id="透明方底" class="st0" width="600" height="600"/>
<circle id="圆框" class="st1" cx="299.96" cy="300.02" r="299.54"/>
<path class="st2" d="M424.45,46.77c-5.15-1.73-10.47-3.54-16.01-5.11c-88.05-25.48-137.02,16.24-150.03,59.24
	c-17.82,58.79,12.56,99.07,91.34,158.33c96.56,72.6,136.53,140.04,108.52,232.54c-8.28,27.36-22.07,51.92-41.02,72.22
	c78.05-31.04,141.54-95.24,167.31-180.31C626.19,246.42,555.33,102.84,424.45,46.77z"/>
<path class="st3" d="M261.09,311.48c-90.73-70.13-137.88-145.93-112.02-239.11c3.89-13.81,9.02-26.66,15.35-38.49
	C94.82,68.35,39,133.29,15.48,217.82c-24.56,88.25-8.5,178.91,36.46,249.63c31.03,40.41,61.07,70.76,122.04,88.68
	c82.57,24.28,149.13-9.46,167.64-76.24C358.85,418.1,335.52,372.37,261.09,311.48z"/>
</svg>
