<svg xmlns="http://www.w3.org/2000/svg" width="640" height="640" viewBox="0 0 640 640"><path d="M0 0 C211.2 0 422.4 0 640 0 C640 211.2 640 422.4 640 640 C428.8 640 217.6 640 0 640 C0 428.8 0 217.6 0 0 Z " fill="#232424" transform="translate(0,0)"/><path d="M0 0 C1.11 -0 2.23 -0 3.37 -0 C6.45 -0 9.52 -0 12.59 0 C15.91 0.01 19.23 0.01 22.55 0.01 C28.3 0.01 34.05 0.01 39.8 0.01 C48.11 0.02 56.42 0.03 64.73 0.03 C78.21 0.03 91.7 0.04 105.18 0.04 C118.28 0.05 131.37 0.06 144.47 0.07 C145.68 0.07 145.68 0.07 146.92 0.07 C150.97 0.07 155.02 0.07 159.07 0.07 C192.67 0.08 226.27 0.1 259.87 0.12 C260.17 6.73 260.4 13.33 260.54 19.94 C260.61 23.01 260.7 26.08 260.85 29.15 C261.86 50.64 261.86 50.64 257.07 55.91 C254.41 58.19 251.57 59.88 248.41 61.37 C246.33 62.38 244.54 63.7 242.7 65.08 C241.51 65.89 240.32 66.69 239.12 67.5 C237.76 68.42 236.4 69.35 235.04 70.27 C234.35 70.74 233.67 71.21 232.96 71.69 C227.26 75.59 221.64 79.61 216.01 83.61 C213.89 85.11 211.77 86.6 209.65 88.09 C202.42 93.18 195.22 98.3 188.06 103.5 C179.2 109.92 170.24 116.18 161.27 122.44 C151.79 129.07 142.35 135.76 133 142.56 C126.79 147.06 120.52 151.44 114.18 155.75 C107.84 160.05 101.59 164.46 95.43 169.03 C88.71 174 81.87 178.8 75.03 183.6 C71.47 186.1 67.92 188.61 64.37 191.12 C62.95 192.12 61.54 193.12 60.12 194.12 C59.42 194.62 58.72 195.11 58 195.62 C51.62 200.12 51.62 200.12 49.5 201.62 C48.08 202.62 46.66 203.62 45.24 204.62 C41.72 207.11 38.19 209.6 34.66 212.09 C26.46 217.85 18.3 223.67 10.2 229.58 C8.8 230.59 7.4 231.6 6 232.6 C4.51 233.66 3.03 234.75 1.56 235.84 C-4.25 240.02 -4.25 240.02 -8.37 240.48 C-9.38 240.28 -10.4 240.08 -11.44 239.87 C-12.02 239.76 -12.6 239.65 -13.19 239.53 C-15.19 239.12 -17.15 238.63 -19.13 238.12 C-19.9 237.93 -20.67 237.74 -21.46 237.54 C-33.44 234.47 -44.38 230.23 -55.13 224.12 C-55.65 223.83 -56.18 223.53 -56.72 223.23 C-64.01 219.05 -70.08 213.91 -76.13 208.12 C-77.26 207.11 -77.26 207.11 -78.4 206.07 C-89.28 195.92 -96.59 182.8 -102.13 169.12 C-102.36 168.55 -102.59 167.99 -102.83 167.41 C-114.96 136.69 -116.54 101.75 -103.89 71.03 C-98.91 59.63 -92.6 49.26 -84.13 40.12 C-83.65 39.6 -83.17 39.08 -82.68 38.54 C-75.22 30.52 -67.45 23.87 -58.13 18.12 C-57.57 17.77 -57.01 17.42 -56.44 17.06 C-38.98 6.25 -20.63 -0.06 0 0 Z " fill="#FBF7F4" transform="translate(246.12998962402344,115.87974548339844)"/><path d="M0 0 C0.74 0.16 1.49 0.31 2.25 0.47 C4.56 0.99 6.84 1.57 9.12 2.19 C10.36 2.52 10.36 2.52 11.62 2.86 C28.31 7.47 43.76 14.7 57 26 C57.8 26.65 58.6 27.31 59.42 27.98 C84.77 49.56 95.68 83.79 99 116 C101.39 147.42 89.14 176.91 69.11 200.39 C65.37 204.68 61.53 208.53 57 212 C56.52 212.37 56.03 212.74 55.54 213.13 C44.52 221.53 32.92 228.29 20 233.31 C19.42 233.54 18.84 233.77 18.24 234.01 C3.27 239.52 -11.85 239.43 -27.57 239.35 C-30.87 239.34 -34.17 239.34 -37.47 239.34 C-43.18 239.34 -48.88 239.33 -54.59 239.32 C-62.84 239.29 -71.08 239.28 -79.33 239.28 C-92.72 239.27 -106.1 239.25 -119.49 239.23 C-132.48 239.2 -145.47 239.18 -158.47 239.16 C-159.27 239.16 -160.07 239.16 -160.9 239.16 C-164.93 239.16 -168.95 239.15 -172.98 239.15 C-206.32 239.12 -239.66 239.07 -273 239 C-273.4 232.3 -273.7 225.6 -273.88 218.89 C-273.97 215.77 -274.09 212.66 -274.28 209.55 C-275.5 189.5 -275.5 189.5 -271.36 183.7 C-267.39 179.9 -262.91 177.32 -257.97 174.97 C-255.47 173.74 -253.31 172.18 -251.11 170.48 C-250.45 170 -249.8 169.53 -249.12 169.03 C-248.48 168.57 -247.85 168.1 -247.19 167.62 C-238.33 161.2 -229.37 154.94 -220.4 148.68 C-214.61 144.63 -208.84 140.54 -203.07 136.46 C-200.98 134.99 -198.89 133.51 -196.8 132.04 C-189.54 126.93 -182.31 121.78 -175.12 116.56 C-168.92 112.06 -162.65 107.68 -156.31 103.38 C-149.97 99.07 -143.72 94.66 -137.56 90.09 C-130.84 85.12 -124 80.32 -117.16 75.52 C-113.6 73.02 -110.05 70.51 -106.5 68 C-102.26 65.01 -98.03 62.02 -93.79 59.04 C-86.55 53.94 -79.35 48.82 -72.19 43.62 C-63.33 37.21 -54.37 30.94 -45.4 24.68 C-42.4 22.58 -39.41 20.47 -36.41 18.36 C-35.03 17.38 -33.63 16.4 -32.24 15.43 C-28.59 12.87 -25.01 10.26 -21.48 7.55 C-20.73 6.99 -19.98 6.43 -19.21 5.85 C-17.78 4.77 -16.37 3.68 -14.97 2.57 C-9.72 -1.33 -6.27 -1.48 0 0 Z " fill="#FBF7F4" transform="translate(407,285)"/></svg>