<?xml version="1.0" encoding="utf-8"?>
<!-- Generator: Adobe Illustrator 25.3.1, SVG Export Plug-In . SVG Version: 6.00 Build 0)  -->
<svg version="1.1" id="图层_1" xmlns="http://www.w3.org/2000/svg" xmlns:xlink="http://www.w3.org/1999/xlink" x="0px" y="0px"
	 viewBox="0 0 600 600" style="enable-background:new 0 0 600 600;" xml:space="preserve">
<style type="text/css">
	.st0{fill:none;}
	.st1{fill-rule:evenodd;clip-rule:evenodd;fill:#1F9DD8;}
	.st2{fill-rule:evenodd;clip-rule:evenodd;fill:#78B942;}
	.st3{fill-rule:evenodd;clip-rule:evenodd;fill:#FFC807;}
	.st4{fill-rule:evenodd;clip-rule:evenodd;fill:#EA7723;}
	.st5{fill-rule:evenodd;clip-rule:evenodd;fill:#EC1C66;}
	.st6{fill-rule:evenodd;clip-rule:evenodd;fill:#424242;}
	.st7{fill:#424242;}
	.st8{fill:#787878;}
</style>
<rect id="透明方底" class="st0" width="600" height="600"/>
<path class="st1" d="M132.11,312.86l-13.06,40.18c-0.5,1.64-1.31,3.17-2.4,4.5c-1.09,1.33-2.42,2.43-3.94,3.24s-3.17,1.32-4.88,1.49
	c-1.71,0.17-3.43,0-5.07-0.49l-85.01-27.62c-1.62-0.56-3.11-1.44-4.39-2.58c-1.28-1.14-2.32-2.52-3.07-4.07
	c-0.75-1.55-1.18-3.22-1.28-4.94c-0.1-1.71,0.14-3.43,0.71-5.05l13.06-40.18c1-3.32,3.28-6.11,6.33-7.76
	c3.05-1.64,6.63-2.01,9.95-1.01l85.01,27.62c3.27,1.15,5.95,3.54,7.46,6.67C133.05,305.98,133.25,309.58,132.11,312.86z"/>
<path class="st2" d="M209.48,228.56L175.3,253.4c-1.37,1.04-2.93,1.8-4.59,2.23c-1.66,0.44-3.39,0.54-5.09,0.31
	c-1.7-0.23-3.34-0.8-4.82-1.66c-1.48-0.87-2.78-2.01-3.81-3.38l-52.54-72.31c-0.98-1.41-1.67-3-2.04-4.67
	c-0.37-1.68-0.4-3.41-0.09-5.1c0.3-1.69,0.94-3.3,1.87-4.75c0.93-1.44,2.13-2.69,3.54-3.67l34.18-24.83
	c2.76-2.1,6.25-3.02,9.68-2.55c3.44,0.47,6.55,2.28,8.65,5.03l52.54,72.31c1.97,2.85,2.73,6.37,2.11,9.78
	C214.28,223.56,212.33,226.58,209.48,228.56z"/>
<path class="st3" d="M321.62,205.85h-42.25c-1.72,0.04-3.42-0.26-5.02-0.89c-1.6-0.62-3.06-1.55-4.3-2.74
	c-1.24-1.19-2.23-2.61-2.92-4.18c-0.69-1.57-1.06-3.26-1.1-4.98v-89.38c0.04-1.71,0.41-3.41,1.1-4.98c0.69-1.57,1.68-2.99,2.92-4.18
	c1.24-1.19,2.7-2.12,4.3-2.74c1.6-0.62,3.31-0.92,5.02-0.89h42.25c3.47-0.07,6.83,1.23,9.33,3.63c2.51,2.4,3.96,5.69,4.04,9.15
	v89.38c-0.08,3.47-1.53,6.76-4.04,9.15C328.44,204.62,325.09,205.92,321.62,205.85z"/>
<path class="st4" d="M425.69,253.39l-34.18-24.83c-1.41-0.98-2.61-2.23-3.54-3.67c-0.93-1.44-1.56-3.06-1.87-4.75
	c-0.3-1.69-0.27-3.42,0.09-5.1c0.36-1.68,1.06-3.26,2.04-4.67l52.54-72.31c1.04-1.37,2.33-2.51,3.82-3.38
	c1.48-0.86,3.12-1.43,4.82-1.66c1.7-0.23,3.43-0.13,5.09,0.31s3.22,1.2,4.59,2.23l34.18,24.83c2.85,1.98,4.8,5.01,5.42,8.42
	c0.62,3.41-0.14,6.93-2.11,9.78l-52.54,72.31c-2.1,2.76-5.21,4.57-8.65,5.03C431.94,256.4,428.45,255.49,425.69,253.39z"/>
<path class="st5" d="M481.95,353.02l-13.06-40.18c-0.57-1.62-0.81-3.34-0.71-5.05c0.1-1.71,0.53-3.39,1.28-4.94
	c0.75-1.55,1.79-2.93,3.07-4.07c1.28-1.14,2.77-2.02,4.39-2.58l85.01-27.62c1.64-0.5,3.37-0.66,5.07-0.49s3.36,0.68,4.88,1.49
	c1.51,0.81,2.85,1.91,3.94,3.24c1.09,1.33,1.9,2.86,2.4,4.5l13.06,40.18c1.14,3.28,0.94,6.87-0.57,10
	c-1.51,3.12-4.19,5.52-7.46,6.67l-85.01,27.62c-3.32,1-6.9,0.63-9.95-1.01C485.23,359.13,482.95,356.34,481.95,353.02z"/>
<path class="st6" d="M204.43,290.93c8.73-7.34,21.75-6.21,29.09,2.51l67.04,79.71l37.11-44.7c7.28-8.77,20.3-9.98,29.07-2.7
	c8.77,7.28,9.98,20.3,2.7,29.07l-52.89,63.71c-3.91,4.71-9.7,7.44-15.82,7.46c-6.12,0.02-11.93-2.68-15.87-7.36l-82.95-98.62
	C194.58,311.29,195.7,298.27,204.43,290.93z"/>
<path class="st7" d="M427.62,513.79h12.41v-68.7h-12.41v24.55c-4.48-4.48-9.61-6.72-15.59-6.72c-12.88,0-23.33,10.64-23.33,26.13
	c0,15.21,11.01,26.04,23.61,26.04c6.25,0,10.92-2.24,15.31-6.53V513.79z M414.56,474.31c7.84,0,13.63,5.88,13.63,14.56
	c0,9.05-5.97,14.84-13.63,14.84c-7.75,0-13.35-6.25-13.35-14.75C401.21,480.84,406.34,474.31,414.56,474.31z"/>
<path class="st7" d="M489.24,513.79h12.41v-49.56h-12.41v5.41c-4.48-4.48-9.61-6.72-15.59-6.72c-12.88,0-23.33,10.64-23.33,26.13
	c0,15.21,11.01,26.04,23.61,26.04c6.25,0,10.92-2.24,15.31-6.53V513.79z M476.17,474.31c7.84,0,13.63,5.88,13.63,14.56
	c0,9.05-5.97,14.84-13.63,14.84c-7.75,0-13.35-6.25-13.35-14.75C462.82,480.84,467.96,474.31,476.17,474.31z"/>
<path class="st7" d="M515.67,464.23h-6.35v10.64h6.35v38.92h12.41v-38.92h7.37v-10.64h-7.37v-18.29h-12.41V464.23z"/>
<path class="st7" d="M578.19,499.23c-3.45,3.36-7,4.85-12.32,4.85c-7.09,0-12.69-4.11-13.91-11.48h39.95c0-1.12,0.09-1.68,0.09-2.8
	c0-15.68-10.64-26.88-26.32-26.88c-15.96,0-25.76,12.51-25.76,26.04c0,14.56,10.18,26.13,25.95,26.13
	c10.45,0,17.45-3.36,22.77-10.92L578.19,499.23z M552.52,482.8c2.42-6.25,7.19-9.33,13.35-9.33c6.63,0,11.95,3.55,13.63,9.33H552.52
	z"/>
<path class="st8" d="M248.42,513.79h12.41v-49.56h-12.41v5.41c-4.48-4.48-9.61-6.72-15.59-6.72c-12.88,0-23.33,10.64-23.33,26.13
	c0,15.21,11.01,26.04,23.61,26.04c6.25,0,10.92-2.24,15.31-6.53V513.79z M235.36,474.31c7.84,0,13.63,5.88,13.63,14.56
	c0,9.05-5.97,14.84-13.63,14.84c-7.75,0-13.35-6.25-13.35-14.75C222.01,480.84,227.14,474.31,235.36,474.31z"/>
<path class="st8" d="M285.77,464.23h-12.41v49.56h12.41V492.7c0-5.13-0.09-9.61,2.42-13.63c1.96-3.08,4.95-4.76,8.4-4.76
	c7.56,0,8.4,6.25,8.4,16.05v23.43h12.41v-33.88c0-10.64-7.75-16.99-16.99-16.99c-5.51,0-9.89,2.33-14.65,6.35V464.23z"/>
<path class="st8" d="M366,513.79h12.41v-68.7H366v24.55c-4.48-4.48-9.61-6.72-15.59-6.72c-12.88,0-23.33,10.64-23.33,26.13
	c0,15.21,11.01,26.04,23.61,26.04c6.25,0,10.92-2.24,15.31-6.53V513.79z M352.94,474.31c7.84,0,13.63,5.88,13.63,14.56
	c0,9.05-5.97,14.84-13.63,14.84c-7.75,0-13.35-6.25-13.35-14.75C339.59,480.84,344.72,474.31,352.94,474.31z"/>
<path class="st7" d="M15.35,464.23H9v10.64h6.35v38.92h12.41v-38.92h7.37v-10.64h-7.37v-18.29H15.35V464.23z"/>
<path class="st7" d="M40.62,513.79h12.41v-49.56H40.62V513.79z M46.78,443.79c-4.29,0-7.93,3.27-7.93,7.56
	c0,4.57,3.36,8.59,7.93,8.59c4.39,0,7.93-3.55,7.93-7.93C54.72,447.52,51.26,443.79,46.78,443.79z"/>
<path class="st7" d="M108.5,489.34c0-10.17,4.48-15.03,10.73-15.03c5.6,0,8.49,4.01,8.49,12.13v27.35h12.41v-29.03
	c0-6.53-0.37-11.95-3.64-16.05c-2.8-3.55-7.75-5.79-13.26-5.79c-7.47,0-12.04,3.08-16.61,8.87c-3.08-5.97-8.31-8.87-14.47-8.87
	c-5.88,0-11.29,2.43-15.49,7v-5.69H64.26v49.56h12.41v-24.27c0-10.17,4.48-15.21,10.64-15.21c6.91,0,8.77,5.88,8.77,15.49v23.99
	h12.41V489.34z"/>
<path class="st7" d="M188.06,499.23c-3.45,3.36-7,4.85-12.32,4.85c-7.09,0-12.69-4.11-13.91-11.48h39.95c0-1.12,0.09-1.68,0.09-2.8
	c0-15.68-10.64-26.88-26.32-26.88c-15.96,0-25.76,12.51-25.76,26.04c0,14.56,10.18,26.13,25.95,26.13
	c10.45,0,17.45-3.36,22.77-10.92L188.06,499.23z M162.4,482.8c2.42-6.25,7.19-9.33,13.35-9.33c6.63,0,11.95,3.55,13.63,9.33H162.4z"
	/>
</svg>
