<?xml version="1.0" encoding="utf-8"?>
<!-- Generator: Adobe Illustrator 25.3.1, SVG Export Plug-In . SVG Version: 6.00 Build 0)  -->
<svg version="1.1" id="图层_1" xmlns="http://www.w3.org/2000/svg" xmlns:xlink="http://www.w3.org/1999/xlink" x="0px" y="0px"
	 viewBox="0 0 600 600" style="enable-background:new 0 0 600 600;" xml:space="preserve">
<style type="text/css">
	.st0{fill:none;}
	.st1{display:none;fill:none;stroke:#FF0000;stroke-miterlimit:10;}
	.st2{stroke:#FFFFFF;stroke-miterlimit:10;}
	.st3{fill:#FFFFFF;}
</style>
<rect id="透明方底" class="st0" width="600" height="600"/>
<circle id="圆框" class="st1" cx="299.96" cy="300.02" r="299.54"/>
<path class="st2" d="M530.05,599.78H69.95C31.32,599.78,0,568.46,0,529.83V69.73C0,31.09,31.32-0.22,69.95-0.22h460.09
	c38.64,0,69.95,31.32,69.95,69.95v460.09C600.01,568.46,568.69,599.78,530.05,599.78z"/>
<g id="layer1" transform="translate(52.390088,-25.058597)">
	<path id="path1009" class="st3" d="M39.78,129.37L201.05,345L38.77,520.31h36.53l142.08-153.49l114.79,153.49h124.29L286.12,292.55
		l151.05-163.19h-36.53L269.8,270.73L164.08,129.37H39.78z M93.5,156.28h57.1l252.14,337.13h-57.1L93.5,156.28z"/>
</g>
</svg>
