<?xml version="1.0" encoding="utf-8"?>
<!-- Generator: Adobe Illustrator 25.3.1, SVG Export Plug-In . SVG Version: 6.00 Build 0)  -->
<svg version="1.1" id="图层_1" xmlns="http://www.w3.org/2000/svg" xmlns:xlink="http://www.w3.org/1999/xlink" x="0px" y="0px"
	 viewBox="0 0 600 600" style="enable-background:new 0 0 600 600;" xml:space="preserve">
<style type="text/css">
	.st0{fill:none;}
	.st1{fill-rule:evenodd;clip-rule:evenodd;fill:#2D8CFF;}
</style>
<rect id="透明方底" class="st0" width="600" height="600"/>
<path class="st1" d="M488.51,272.99c2.29,3.96,3.04,8.46,3.29,13.52l0.33,6.75v47.17l0.33,6.75c0.67,11.03,8.8,19.18,19.91,19.88
	l6.72,0.33v-74.13l0.33-6.75c0.28-5,1.02-9.59,3.35-13.58c7.47-12.87,23.96-17.24,36.83-9.77c4.08,2.37,7.47,5.77,9.82,9.86
	c2.29,3.96,3.01,8.54,3.28,13.49l0.33,6.72v47.19l0.33,6.75c0.69,11.09,8.76,19.24,19.91,19.88l6.72,0.33v-80.88
	c0-29.78-24.14-53.93-53.92-53.94c-15.49-0.02-30.23,6.64-40.45,18.27c-10.23-11.62-24.97-18.28-40.45-18.28
	c-11.2,0-21.59,3.4-30.2,9.27c-5.25-5.86-17-9.27-23.75-9.27v134.83l6.75-0.33c11.28-0.74,19.44-8.68,19.88-19.88l0.36-6.75v-47.17
	l0.33-6.75c0.28-5.09,0.99-9.56,3.29-13.55c4.83-8.31,13.72-13.43,23.34-13.44C474.8,259.53,483.69,264.66,488.51,272.99
	L488.51,272.99z M26.96,367.06l6.75,0.33h101.12l-0.33-6.72c-0.91-11.09-8.76-19.18-19.88-19.91l-6.75-0.33H47.2l80.88-80.91
	l-0.33-6.72c-0.52-11.2-8.71-19.29-19.88-19.91l-6.75-0.3L0,232.56l0.33,6.75c0.88,10.98,8.85,19.25,19.88,19.88l6.75,0.33h60.66
	L6.75,340.43l0.33,6.75C7.74,358.29,15.76,366.34,26.96,367.06L26.96,367.06z M384.76,252.3c26.33,26.32,26.33,69,0.01,95.33
	c0,0-0.01,0.01-0.01,0.01c-26.34,26.32-69.02,26.32-95.36,0c-26.33-26.33-26.33-69.02,0-95.34c12.63-12.64,29.77-19.74,47.64-19.74
	C354.93,232.54,372.1,239.65,384.76,252.3L384.76,252.3z M365.68,271.39c15.79,15.8,15.79,41.41,0,57.21
	c-15.8,15.79-41.41,15.79-57.21,0c-15.79-15.8-15.79-41.41,0-57.21C324.27,255.6,349.88,255.6,365.68,271.39L365.68,271.39z
	 M195.55,232.55c17.87,0,35.01,7.11,47.64,19.75c26.33,26.32,26.33,69.02,0,95.34c-26.34,26.32-69.02,26.32-95.36,0
	c-26.33-26.33-26.33-69.02,0-95.34c12.63-12.64,29.77-19.74,47.64-19.74H195.55L195.55,232.55z M224.11,271.37
	c15.79,15.8,15.79,41.41,0,57.22c-15.8,15.79-41.41,15.79-57.21,0c-15.79-15.8-15.79-41.41,0-57.21
	C182.7,255.59,208.31,255.59,224.11,271.37L224.11,271.37z"/>
</svg>
