<?xml version="1.0" standalone="no"?><!DOCTYPE svg PUBLIC "-//W3C//DTD SVG 1.1//EN" "http://www.w3.org/Graphics/SVG/1.1/DTD/svg11.dtd"><svg t="1780542255911" class="icon" viewBox="0 0 1024 1024" version="1.1" xmlns="http://www.w3.org/2000/svg" p-id="8149" xmlns:xlink="http://www.w3.org/1999/xlink" width="200" height="200"><path d="M0 0m128 0l768 0q128 0 128 128l0 768q0 128-128 128l-768 0q-128 0-128-128l0-768q0-128 128-128Z" fill="#26BF4C" p-id="8150"></path><path d="M288.256 460.288c7.168 55.125333 41.685333 109.077333 92.864 143.082667a12.864 12.864 0 0 1 7.146667 11.690666c1.173333 1.194667 0 3.541333 0 4.693334l-1.856 7.616-1.877334 8.128a392.96 392.96 0 0 0-4.586666 21.802666c-1.194667 2.346667-1.194667 3.52-1.194667 5.866667 1.194667 3.52 4.757333 7.04 8.32 7.04 2.368 0 3.562667 0 4.757333-1.173333l47.616-30.506667a20.330667 20.330667 0 0 1 11.882667-3.498667h5.973333c14.293333 2.346667 29.76 4.693333 45.248 4.693334 47.637333 0 84.522667-11.733333 119.061334-36.352-1.194667 14.08-5.930667 31.658667-9.536 42.197333-33.322667 85.610667-129.770667 121.984-232.128 89.130667-88.106667-28.16-142.869333-130.176-117.866667-215.786667 7.146667-23.466667 13.098667-38.698667 26.176-58.624z m238.122667-51.626667c70.229333-24.597333 147.626667-9.365333 191.68 48.106667 55.936 71.530667 40.448 181.802667-38.122667 241.557333-19.050667 14.08-41.685333 23.466667-64.298667 29.354667a209.194667 209.194667 0 0 0 41.685334-70.4 193.365333 193.365333 0 0 0-123.818667-246.250667c-2.368-1.194667-4.757333-1.194667-7.125333-2.346666v-0.021334zM502.549333 277.333333c61.909333 0 119.061333 31.658667 153.578667 85.610667 0 0 2.368 3.541333 4.757333 8.192-4.757333-2.346667-10.709333-3.498667-16.64-4.693333-1.194667-1.152-1.194667-1.152-2.410666-1.152-4.757333-1.152-9.514667-2.346667-15.466667-3.498667h-2.368c-5.952-1.194667-10.730667-2.346667-16.682667-2.346667h-2.389333c-5.930667-1.194667-11.882667-1.194667-17.834667-1.194666-4.778667 0-10.730667 1.194667-15.488 1.194666h-6.442666c-4.608 0-9.237333 0.384-13.802667 1.152h-2.368c-4.757333 0-9.536 1.194667-14.293333 2.346667h-1.194667c-4.757333 1.194667-9.514667 3.541333-14.272 4.693333-1.194667 1.152-1.194667 1.152-2.410667 1.152-9.514667 3.541333-19.008 7.04-28.565333 11.733334 0 1.194667-1.194667 1.194667-1.194667 1.194666-3.562667 3.498667-8.32 5.845333-13.077333 8.192h-1.173333c-4.757333 3.541333-8.362667 5.888-13.12 9.386667l-6.997334 5.333333a211.2 211.2 0 0 0-77.504 135.402667c-22.613333-22.272-38.122667-58.624-41.685333-85.610667a140.245333 140.245333 0 0 1 32.128-113.749333C408.533333 290.218667 465.642667 277.333333 502.549333 277.333333z" fill="#FFFFFF" p-id="8151"></path></svg>