<?xml version="1.0" encoding="utf-8"?>
<!-- Generator: Adobe Illustrator 25.3.1, SVG Export Plug-In . SVG Version: 6.00 Build 0)  -->
<svg version="1.1" id="图层_1" xmlns="http://www.w3.org/2000/svg" xmlns:xlink="http://www.w3.org/1999/xlink" x="0px" y="0px"
	 viewBox="0 0 600 600" style="enable-background:new 0 0 600 600;" xml:space="preserve">
<style type="text/css">
	.st0{fill:none;}
	.st1{display:none;fill:none;stroke:#FF0000;stroke-miterlimit:10;}
	.st2{fill:#B5A49A;}
	.st3{fill:#074179;}
</style>
<rect id="透明方底" class="st0" width="600" height="600"/>
<circle id="圆框" class="st1" cx="299.96" cy="300.02" r="299.54"/>
<g>
	<polygon class="st2" points="11.3,379.48 0.18,410.96 264.11,272.96 264.11,247.59 	"/>
	<polygon class="st3" points="600,198.53 335.76,335.8 335.76,361.13 589.22,229.49 	"/>
	<path class="st3" d="M470.13,350.44c-21.55,71.1-87.66,122.99-165.71,122.99H139.16v-75.03l-36.23,18.95v83.18l-10.11,9.15h211.62
		c28.25,0,55.68-5.53,81.49-16.45c24.93-10.55,47.31-25.64,66.54-44.85c19.21-19.23,34.3-41.61,44.85-66.54
		c7.24-17.1,12.1-34.9,14.54-53.19L470.13,350.44z"/>
	<path class="st2" d="M139.16,255.68V127.22h165.28c64.72,0,121.25,35.71,150.94,88.46l32.24-16.75
		c-9.43-17.05-21.2-32.69-35.15-46.64c-19.23-19.21-41.61-34.32-66.54-44.85c-25.83-10.92-53.25-16.45-81.51-16.45H92.81l10.11,8.76
		v174.87L139.16,255.68z"/>
	<polygon class="st3" points="589.22,282.44 600,251.43 265.49,426.1 265.49,301.09 12.7,433.01 1.55,464.5 243.05,338.25 
		243.05,463.23 	"/>
	<polygon class="st2" points="589.22,177.35 600,146.37 358.2,272.01 358.2,146.95 12.7,327.33 1.55,358.83 335.76,184.08 
		335.76,308.99 	"/>
</g>
</svg>
