<?xml version="1.0" encoding="utf-8"?>
<!-- Generator: Adobe Illustrator 25.3.1, SVG Export Plug-In . SVG Version: 6.00 Build 0)  -->
<svg version="1.1" id="图层_1" xmlns="http://www.w3.org/2000/svg" xmlns:xlink="http://www.w3.org/1999/xlink" x="0px" y="0px"
	 viewBox="0 0 600 600" style="enable-background:new 0 0 600 600;" xml:space="preserve">
<style type="text/css">
	.st0{fill:none;}
	.st1{display:none;fill:none;stroke:#FF0000;stroke-miterlimit:10;}
	.st2{fill-rule:evenodd;clip-rule:evenodd;fill:url(#SVGID_1_);}
	.st3{fill-rule:evenodd;clip-rule:evenodd;fill:url(#SVGID_2_);}
	.st4{fill-rule:evenodd;clip-rule:evenodd;fill:url(#SVGID_3_);}
	.st5{display:none;fill-rule:evenodd;clip-rule:evenodd;fill:url(#SVGID_4_);}
	.st6{display:none;fill-rule:evenodd;clip-rule:evenodd;fill:url(#SVGID_5_);}
	.st7{display:none;fill-rule:evenodd;clip-rule:evenodd;fill:url(#SVGID_6_);}
	.st8{display:none;fill-rule:evenodd;clip-rule:evenodd;fill:url(#SVGID_7_);}
	.st9{display:none;fill-rule:evenodd;clip-rule:evenodd;fill:url(#SVGID_8_);}
	.st10{display:none;fill-rule:evenodd;clip-rule:evenodd;fill:url(#SVGID_9_);}
	.st11{display:none;fill-rule:evenodd;clip-rule:evenodd;fill:url(#SVGID_10_);}
	.st12{display:none;fill-rule:evenodd;clip-rule:evenodd;fill:url(#SVGID_11_);}
	.st13{display:none;fill-rule:evenodd;clip-rule:evenodd;fill:url(#SVGID_12_);}
</style>
<rect id="透明方底" class="st0" width="600" height="600"/>
<circle id="圆框" class="st1" cx="299.96" cy="300.02" r="299.54"/>
<linearGradient id="SVGID_1_" gradientUnits="userSpaceOnUse" x1="311.6908" y1="515.4305" x2="169.294" y2="168.8054" gradientTransform="matrix(1 0 0 -1 0 602)">
	<stop  offset="0" style="stop-color:#EF8200"/>
	<stop  offset="1" style="stop-color:#E50012"/>
</linearGradient>
<path class="st2" d="M54.64,69.19C36.18,193.67,29.09,315.6,12.82,441.36c32.96-70.12,90.81-135.53,121.89-160.22l24.1-150.46
	c78.5-16.42,294.77-64.55,399.37-1.06C558.19,129.63,461.07,8.05,54.64,69.19z"/>
<linearGradient id="SVGID_2_" gradientUnits="userSpaceOnUse" x1="431.9206" y1="213.4109" x2="259.56" y2="430.3003" gradientTransform="matrix(1 0 0 -1 0 602)">
	<stop  offset="0" style="stop-color:#1D2087"/>
	<stop  offset="1" style="stop-color:#44BFED"/>
</linearGradient>
<path class="st3" d="M191.86,153.93c104.6-19.52,377.19-98.26,399.45,69.33c0,0,41.86,195.06-356.73,310.8l1.92-67.8
	c252.71-44.05,395.1-280.42,216.07-303.31c-80.93-9.09-216.93,49.7-270.7,86.46C183.27,219.85,184.37,220.79,191.86,153.93z"/>
<linearGradient id="SVGID_3_" gradientUnits="userSpaceOnUse" x1="58.876" y1="250.5023" x2="377.4267" y2="220.1673" gradientTransform="matrix(1 0 0 -1 0 602)">
	<stop  offset="0" style="stop-color:#1D2087"/>
	<stop  offset="1" style="stop-color:#44BFED"/>
</linearGradient>
<path class="st4" d="M8.12,560c0,0,44.95-318.56,420.03-386.67c-76.9,31.59-156.22,98.33-209.01,165.47
	c-47.93,60.94-71.57,120.67-82.26,200.74L8.12,560L8.12,560z M235.75,360.39c-11.8,11.01-29.2,37.82-35,58.48l77.48,21.99
	c32.49-6.39,61.85-19.95,78.66-31.35L235.75,360.39z"/>
<linearGradient id="SVGID_4_" gradientUnits="userSpaceOnUse" x1="-12.9876" y1="24.242" x2="-13.5663" y2="35.3501" gradientTransform="matrix(1 0 0 -1 0 602)">
	<stop  offset="0" style="stop-color:#1D2087"/>
	<stop  offset="1" style="stop-color:#44BFED"/>
</linearGradient>
<rect x="-79.22" y="567.81" class="st5" width="131.88" height="8.76"/>
<linearGradient id="SVGID_5_" gradientUnits="userSpaceOnUse" x1="586.8218" y1="24.2411" x2="586.2435" y2="35.3492" gradientTransform="matrix(1 0 0 -1 0 602)">
	<stop  offset="0" style="stop-color:#1D2087"/>
	<stop  offset="1" style="stop-color:#44BFED"/>
</linearGradient>
<rect x="520.59" y="567.81" class="st6" width="131.88" height="8.76"/>
<linearGradient id="SVGID_6_" gradientUnits="userSpaceOnUse" x1="116.8785" y1="-13.3989" x2="111.737" y2="43.0059" gradientTransform="matrix(1 0 0 -1 0 602)">
	<stop  offset="0" style="stop-color:#1D2087"/>
	<stop  offset="1" style="stop-color:#44BFED"/>
</linearGradient>
<path class="st7" d="M90.7,550.14h35.8c1.55,0,2.92,0.15,4.13,0.42c1.18,0.27,2.2,0.99,3.03,2.12c0.83,1.14,1.4,2.28,1.74,3.45
	s0.61,2.69,0.8,4.59c0.19,1.9,0.19,3.41,0,4.55c-0.34,1.97-0.87,3.26-1.55,3.83l-3.03,3.03c1.37,0.68,2.39,1.37,3.15,1.97
	c0.76,0.64,1.37,1.52,1.86,2.65c0.53,1.14,0.8,2.46,0.87,3.98c0.08,1.52,0,3.26-0.15,5.31c-0.15,1.52-0.46,2.81-0.87,3.94
	c-0.42,1.1-1.29,2.09-2.58,2.96s-2.43,1.37-3.34,1.59c-0.95,0.19-2.73,0.3-5.38,0.3H90.7V550.14L90.7,550.14z M101.09,576.34
	L101.09,576.34v8.68h21.39c1.33,0,2.35-0.34,2.96-1.02c0.64-0.68,0.95-1.74,0.91-3.19c-0.04-0.87-0.34-1.82-0.87-2.88
	c-0.53-1.06-1.55-1.59-3-1.59H101.09L101.09,576.34z M101.09,559.85L101.09,559.85v8.23h20.21c1.1,0,2.01-0.46,2.65-1.4
	c0.68-0.95,0.99-1.82,0.95-2.62c-0.04-0.8-0.34-1.71-0.87-2.69c-0.53-1.02-1.44-1.52-2.69-1.52H101.09z"/>
<linearGradient id="SVGID_7_" gradientUnits="userSpaceOnUse" x1="172.332" y1="-7.808" x2="167.3281" y2="47.0902" gradientTransform="matrix(1 0 0 -1 0 602)">
	<stop  offset="0" style="stop-color:#1D2087"/>
	<stop  offset="1" style="stop-color:#44BFED"/>
</linearGradient>
<path class="st8" d="M143.94,576.99v-12.63c0-1.63,0.27-3.41,0.8-5.35c0.53-1.93,1.21-3.49,1.97-4.66c0.8-1.18,1.97-2.24,3.49-3.19
	c1.55-0.95,3.72-1.44,6.52-1.44h23.21c3.56,0,6.11,0.53,7.66,1.63c1.55,1.1,2.73,2.24,3.49,3.41c0.8,1.21,1.44,2.65,1.9,4.44
	c0.46,1.74,0.72,3.94,0.72,6.52v11.79c0,2.12-0.15,4.4-0.42,6.79c-0.3,2.39-0.87,4.13-1.74,5.23c-0.87,1.1-1.74,1.97-2.65,2.65
	c-0.91,0.64-1.97,1.25-3.15,1.74c-1.18,0.49-3.07,0.76-5.69,0.76H156.9c-1.48,0-3.15-0.34-4.97-1.02c-1.82-0.68-3.49-1.86-5.04-3.53
	c-1.55-1.67-2.35-3.56-2.35-5.65L143.94,576.99L143.94,576.99z M161.8,559.77L161.8,559.77c-1.55,0.08-2.77,0.23-3.64,0.46
	c-0.91,0.27-1.63,0.68-2.2,1.29c-0.57,0.61-0.99,1.37-1.25,2.24c-0.27,0.87-0.38,1.93-0.38,3.15v9.86c0,2.16,0.15,3.68,0.46,4.63
	c0.34,0.95,0.72,1.59,1.25,2.01s1.18,0.68,2.01,0.87c0.83,0.15,2.12,0.27,3.94,0.27h13.69c0.68,0,1.74-0.08,3.11-0.23
	c1.37-0.15,2.28-0.42,2.69-0.8c0.42-0.34,0.83-1.14,1.25-2.28s0.64-2.54,0.64-4.13v-10.05c0-1.29-0.19-2.39-0.53-3.3
	s-0.8-1.63-1.37-2.2c-0.57-0.57-1.44-0.99-2.65-1.33c-1.21-0.34-2.39-0.49-3.49-0.49H161.8V559.77z"/>
<linearGradient id="SVGID_8_" gradientUnits="userSpaceOnUse" x1="262.9124" y1="-1.3202" x2="257.6768" y2="56.116" gradientTransform="matrix(1 0 0 -1 0 602)">
	<stop  offset="0" style="stop-color:#1D2087"/>
	<stop  offset="1" style="stop-color:#44BFED"/>
</linearGradient>
<polygon class="st9" points="236.54,550.14 246.77,550.14 246.77,566.9 253.45,566.9 269.72,550.14 283.67,550.14 263.46,571.72 
	286.13,594.85 271.27,594.85 253.26,577.1 246.77,577.1 246.77,594.85 236.54,594.85 "/>
<linearGradient id="SVGID_9_" gradientUnits="userSpaceOnUse" x1="320.9614" y1="3.9951" x2="315.9196" y2="59.3077" gradientTransform="matrix(1 0 0 -1 0 602)">
	<stop  offset="0" style="stop-color:#1D2087"/>
	<stop  offset="1" style="stop-color:#44BFED"/>
</linearGradient>
<path class="st10" d="M312.75,549.42h15.51l20.82,45.28h-11.57l-4.13-8.99h-25.41l-3.98,8.99h-11.76L312.75,549.42L312.75,549.42z
	 M311.88,577.22L311.88,577.22h17.63l-8.76-19.19L311.88,577.22z"/>
<linearGradient id="SVGID_10_" gradientUnits="userSpaceOnUse" x1="364.5265" y1="7.9406" x2="359.2913" y2="65.3764" gradientTransform="matrix(1 0 0 -1 0 602)">
	<stop  offset="0" style="stop-color:#1D2087"/>
	<stop  offset="1" style="stop-color:#44BFED"/>
</linearGradient>
<rect x="357.42" y="550.03" class="st11" width="10.24" height="44.52"/>
<linearGradient id="SVGID_11_" gradientUnits="userSpaceOnUse" x1="436.8886" y1="15.3924" x2="431.7661" y2="71.5943" gradientTransform="matrix(1 0 0 -1 0 602)">
	<stop  offset="0" style="stop-color:#1D2087"/>
	<stop  offset="1" style="stop-color:#44BFED"/>
</linearGradient>
<path class="st12" d="M411.42,549.8h36.21c2.12,0,4.1,0.38,5.92,1.18c1.82,0.76,3.19,1.74,4.06,2.88c0.87,1.14,1.67,2.73,2.35,4.85
	c0.68,2.09,1.02,3.83,1.02,5.27v14.9c0,2.69-0.3,5.16-0.87,7.32c-0.61,2.16-1.33,3.83-2.2,4.93c-0.87,1.1-2.01,2.01-3.37,2.77
	c-1.4,0.72-3.64,1.1-6.67,1.1h-36.4v-45.2H411.42z M421.66,560.11L421.66,560.11v24.65h22.68c1.48,0,2.62-0.42,3.49-1.25
	c0.83-0.83,1.4-1.52,1.63-2.09c0.23-0.53,0.34-2.09,0.34-4.63v-6.75c0-2.16-0.04-3.83-0.15-5.01c-0.11-1.18-0.57-2.28-1.33-3.37
	c-0.8-1.06-2.09-1.63-3.98-1.63h-22.68V560.11z"/>
<linearGradient id="SVGID_12_" gradientUnits="userSpaceOnUse" x1="478.4757" y1="18.3256" x2="473.2406" y2="75.7614" gradientTransform="matrix(1 0 0 -1 0 602)">
	<stop  offset="0" style="stop-color:#1D2087"/>
	<stop  offset="1" style="stop-color:#44BFED"/>
</linearGradient>
<rect x="472.32" y="550.03" class="st13" width="10.24" height="44.52"/>
</svg>
