<?xml version="1.0" encoding="utf-8"?>
<!-- Generator: Adobe Illustrator 25.3.1, SVG Export Plug-In . SVG Version: 6.00 Build 0)  -->
<svg version="1.1" id="图层_1" xmlns="http://www.w3.org/2000/svg" xmlns:xlink="http://www.w3.org/1999/xlink" x="0px" y="0px"
	 viewBox="0 0 600 600" style="enable-background:new 0 0 600 600;" xml:space="preserve">
<style type="text/css">
	.st0{fill:none;}
	.st1{fill:#D81E06;}
</style>
<rect id="透明方底" class="st0" width="600" height="600"/>
<path class="st1" d="M575.27,301.08c-0.18,28.97-4.57,57.47-13.06,84.71c-2.89,9.56-11.69,16.11-21.68,16.14
	c-7.18,0.02-13.94-3.4-18.18-9.19c-4.42-5.98-5.73-13.7-3.53-20.79c7.3-23.51,11-48,10.97-72.62c0-63.27-23.9-122.67-67.26-167.36
	c-43.28-44.62-100.78-69.15-161.96-69.15c-61.13,0-118.65,24.55-161.93,69.15c-43.36,44.67-67.26,104.12-67.26,167.36
	c0,63.27,23.9,122.7,67.26,167.39c43.28,44.59,100.78,69.15,161.96,69.15c21.29,0,42.37-3,62.64-8.93c6.8-2,14.14-0.67,19.8,3.58
	c5.88,4.37,9.34,11.27,9.3,18.6c0,10.24-6.74,19.36-16.46,22.2c-24.37,7.08-49.68,10.68-75.31,10.68
	c-73.43,0-142.47-29.47-194.35-82.91C54.42,445.71,25.9,374.74,25.9,299.33c0-75.05,28.26-145.73,79.59-199
	c24.8-25.83,54.42-46.53,87.2-60.94c32.54-14.37,67.62-22.08,103.18-22.67c75.41-1.31,146.26,28.26,199.39,83.22
	c25.71,26.59,45.94,57.99,59.53,92.39C568.56,226.92,575.51,263.85,575.27,301.08z M457.72,302.72c0.06,8.88-0.58,17.76-1.91,26.54
	c-1.61,11.17-11.18,19.47-22.46,19.49c-6.56,0-12.77-2.85-17.08-7.84c-4.47-5.19-6.45-12.09-5.41-18.86
	c0.92-6.04,1.38-12.15,1.38-18.26c0.19-31.94-12.54-62.59-35.29-85c-21.02-21.01-49.58-32.73-79.31-32.52
	c-61.7,0.5-112.35,52.77-112.82,116.61c-0.24,32.44,12.07,62.69,34.64,85.31c20.86,21.18,49.34,33.12,79.07,33.15
	c6.32,0,11.83-0.39,16.85-1.2c6.46-1.01,13.04,0.85,18.02,5.09c5.2,4.41,8.19,10.89,8.18,17.71c0,11.42-8.07,21.03-19.2,22.78
	c-7.47,1.18-15.28,1.75-23.85,1.75c-87.82,0-159.21-73.46-159.21-163.68c-0.05-22.34,4.41-44.46,13.11-65.04
	c8.31-19.75,20.43-37.68,35.66-52.77c29.36-29.43,69.24-45.94,110.81-45.87C385.96,140.32,457.17,213.31,457.72,302.72z
	 M573.96,528.81c-1.42,3.4-4.75,5.62-8.44,5.62h-44.93v47.7c0,3.74-2.22,7.05-5.64,8.52c-3.37,1.42-7.26,0.67-9.87-1.88
	l-69.67-67.26l1.83-45.22L309.45,344.6c-3.66,1.18-7.52,1.83-11.52,1.83c-21.21,0-38.48-17.71-38.48-39.44
	c0-21.76,17.24-39.44,38.48-39.44c21.21,0,38.48,17.68,38.48,39.44c0,4.05-0.63,8.1-1.83,12.02l128.78,132.67l40.54-1.72l68.1,68.7
	C574.67,521.32,575.44,525.34,573.96,528.81L573.96,528.81z"/>
</svg>
