<?xml version="1.0" encoding="utf-8"?>
<!-- Generator: Adobe Illustrator 25.3.1, SVG Export Plug-In . SVG Version: 6.00 Build 0)  -->
<svg version="1.1" id="图层_1" xmlns="http://www.w3.org/2000/svg" xmlns:xlink="http://www.w3.org/1999/xlink" x="0px" y="0px"
	 viewBox="0 0 600 600" style="enable-background:new 0 0 600 600;" xml:space="preserve">
<style type="text/css">
	.st0{fill:none;}
	.st1{display:none;fill:none;stroke:#FF0000;stroke-miterlimit:10;}
	.st2{fill:#0BBD61;}
	.st3{fill:#07BF60;}
	.st4{fill:#7F7F7F;}
	.st5{fill:#0CBD61;}
</style>
<rect id="透明方底" class="st0" width="600" height="600"/>
<circle id="圆框" class="st1" cx="299.96" cy="300.02" r="299.54"/>
<path class="st2" d="M161.54,59.96c7.49,4.23,10.55,9.88,13.02,17.91c0.65,4.7,0.67,9.34,0.62,14.08c0.02,1.38,0.02,2.77,0.03,4.18
	c0.02,4.59,0,9.18-0.02,13.79c0,3.29,0.02,6.59,0.02,9.9c0.03,8.95,0.02,17.92,0,26.88c0,9.38,0,18.75,0.02,28.13
	c0,16.75-0.02,33.52-0.03,50.27c-0.03,15.19-0.02,30.36,0,45.55c0.03,17.65,0.03,35.3,0.02,52.94c0,9.33,0,18.66,0.02,28
	c0.02,8.78,0,17.55-0.03,26.33c0,3.22,0,6.45,0.02,9.65c0.02,4.4,0,8.81-0.03,13.2c0.02,1.27,0.02,2.54,0.03,3.84
	c-0.1,10.03-2.15,17.75-8.89,25.51c-5.99,5.01-10.96,4.82-18.56,4.72c-6.41-0.72-9.1-2.64-13.9-6.97
	c-5.62-7.24-5.58-13.37-5.52-22.16c0-1.4-0.02-2.82-0.02-4.27c-0.03-4.72-0.02-9.44,0-14.16c-0.02-3.39-0.03-6.77-0.03-10.16
	c-0.03-8.24-0.03-16.49-0.03-24.73c0.02-6.69,0-13.4,0-20.09c0-0.96,0-1.92,0-2.9c0-1.94-0.02-3.87-0.02-5.81
	c-0.02-18.17-0.02-36.34,0.02-54.51c0.02-16.62-0.02-33.23-0.05-49.85c-0.05-17.06-0.07-34.14-0.05-51.2
	c0.02-9.59,0-19.16-0.02-28.75c-0.03-9-0.03-18.01,0-27.03c0.02-3.3,0-6.61-0.02-9.91c-0.02-4.51,0-9.02,0.03-13.53
	c-0.02-1.32-0.03-2.62-0.05-3.97c0.11-8.73,1.84-13.24,7.37-20.02C143.75,57.58,151.22,57.65,161.54,59.96z"/>
<path class="st3" d="M263.8,62c4.84,3.87,7.94,7.7,8.91,14.02c0.18,3.7,0.21,7.39,0.2,11.1c0.02,1.42,0.02,2.83,0.03,4.3
	c0.03,4.77,0.03,9.54,0.02,14.29c0.02,3.42,0.03,6.84,0.05,10.24c0.05,8.32,0.07,16.64,0.07,24.94c0,6.77,0.02,13.53,0.03,20.29
	c0.03,19.18,0.07,38.34,0.05,57.52c0,1.04,0,2.07,0,3.13c0,1.56,0,1.56,0,3.14c0,16.75,0.05,33.52,0.11,50.29
	c0.08,17.22,0.11,34.43,0.1,51.66c0,9.67,0.02,19.32,0.07,29c0.05,9.08,0.05,18.18,0.02,27.27c0,3.34,0,6.67,0.03,10
	c0.05,4.56,0.02,9.12-0.02,13.68c0.03,1.97,0.03,1.97,0.08,3.99c-0.16,8.87-2.56,13.37-8.64,19.81c-5.42,4.8-10.86,4.3-17.81,4.22
	c-6.41-0.72-9.12-2.64-13.9-6.97c-5.63-7.24-5.58-13.38-5.5-22.17c-0.02-1.4-0.02-2.82-0.03-4.27c-0.02-4.72,0-9.46,0.02-14.18
	c0-3.39-0.02-6.77-0.03-10.16c-0.02-8.25-0.02-16.49,0-24.75c0.02-6.71,0.02-13.4,0.02-20.11c0-0.96,0-1.9-0.02-2.9
	c0-1.94,0-3.87,0-5.81c-0.02-18.18,0-36.35,0.03-54.54c0.02-15.6,0.02-31.18,0-46.77c-0.03-18.12-0.05-36.22-0.03-54.34
	c0-1.92,0.02-3.86,0.02-5.8c0-0.94,0-1.9,0-2.88c0-6.69,0-13.38-0.02-20.07c-0.02-9.02,0-18.02,0.02-27.04
	c0.02-3.3,0.02-6.61,0-9.93c-0.02-4.51,0-9.02,0.03-13.53c-0.02-1.32-0.03-2.64-0.03-3.99c0.07-7.42,0.81-12.11,5.54-18.18
	C243.08,57.55,251.77,56.64,263.8,62z"/>
<path class="st4" d="M358.23,231.21c6.89,5.7,10.4,10.39,11.71,19.23c0.15,3.47,0.21,6.95,0.21,10.42c0,1.03,0.02,2.05,0.02,3.11
	c0,3.4,0,6.82,0,10.24c0.02,2.44,0.02,4.9,0.02,7.36c0.02,6.64,0.02,13.3,0.02,19.96c0.02,4.15,0.02,8.32,0.02,12.47
	c0.02,14.52,0.02,29.03,0.02,43.55c0,13.53,0.02,27.04,0.05,40.57c0.02,11.61,0.03,23.23,0.03,34.86c0,6.94,0,13.87,0.02,20.81
	c0.02,6.51,0.02,13.04,0,19.57c0,2.38,0,4.77,0.02,7.16c0.02,3.27,0,6.54-0.02,9.82c0.02,1.82,0.02,3.65,0.02,5.54
	c-0.59,7.47-1.66,15.94-7.42,21.26c-6.33,5.16-10.79,7.23-18.93,6.72c-7-1.12-11.98-4.1-16.38-9.67c-3.09-6.37-3.73-11.97-3.7-18.93
	c0-1.06-0.02-2.12-0.02-3.21c-0.03-3.55-0.02-7.1-0.02-10.65c-0.02-2.56-0.03-5.1-0.03-7.65c-0.03-6.92-0.05-13.82-0.05-20.74
	c0-4.33,0-8.64-0.02-12.98c-0.03-15.09-0.03-30.17-0.03-45.26c0-14.05-0.03-28.1-0.08-42.17c-0.05-12.06-0.07-24.14-0.07-36.22
	c0-7.2-0.02-14.41-0.05-21.62c-0.03-6.77-0.03-13.56,0-20.33c0-2.49,0-4.97-0.03-7.46c-0.16-23.33-0.16-23.33,7.34-32.8
	C338.59,227.3,349,227.3,358.23,231.21z"/>
<path class="st4" d="M454.59,239.04c6.2,4.02,10.66,7.55,13.02,14.65c0.16,3.39,0.23,6.79,0.23,10.18c0,1.04,0.02,2.07,0.02,3.14
	c0.02,3.47,0.02,6.95,0.02,10.42c0.02,2.49,0.02,4.98,0.03,7.47c0.02,6.77,0.03,13.53,0.03,20.3c0,4.23,0.02,8.45,0.02,12.68
	c0.03,13.22,0.05,26.46,0.05,39.67c0,15.27,0.03,30.54,0.08,45.81c0.03,11.8,0.05,23.59,0.05,35.39c0,7.05,0.02,14.1,0.05,21.15
	c0.02,6.64,0.03,13.27,0.02,19.89c0,2.44,0,4.87,0.02,7.29c0.02,3.32,0.02,6.66,0,9.98c0,1.86,0,3.71,0,5.63
	c-0.9,7.34-3.97,11.53-9.05,16.75c-5.88,3.66-10.7,4.8-17.6,4.48c-6.61-2.2-11.79-5.6-16.18-11.09c-4.07-8.45-2.82-18.97-2.74-28.16
	c0-2.52,0-5.03-0.02-7.55c-0.03-6.84,0-13.68,0.03-20.51c0.03-7.16,0.03-14.31,0.03-21.47c0-12.01,0.03-24.03,0.08-36.04
	c0.05-13.89,0.07-27.79,0.07-41.68c-0.02-13.37,0-26.73,0.03-40.1c0.02-5.7,0.02-11.38,0.02-17.06c0-6.71,0.02-13.4,0.07-20.09
	c0.02-2.46,0.02-4.92,0.02-7.37c-0.02-3.35,0.02-6.71,0.05-10.06c0-1.87,0-3.76,0.02-5.68c0.83-6.67,3.08-11.22,8.37-15.42
	C439.43,237.58,445.94,235.74,454.59,239.04z"/>
<path class="st5" d="M62.23,167.41c7.24,3.94,10.47,8.48,13.02,16.28c0.47,4.14,0.47,8.24,0.47,12.41c0.02,1.82,0.02,1.82,0.03,3.7
	c0.03,4.02,0.03,8.04,0.05,12.06c0,2.82,0.02,5.62,0.03,8.43c0.02,5.88,0.02,11.75,0.02,17.65c0,7.52,0.05,15.04,0.1,22.55
	c0.03,5.81,0.05,11.61,0.05,17.4c0,2.77,0.02,5.55,0.03,8.32c0.03,3.87,0.03,7.77,0.02,11.64c0.02,1.14,0.03,2.28,0.05,3.44
	c-0.1,8.29-2.44,14.11-7.36,20.79c-6.14,5.6-12.47,5.73-20.45,5.45c-6.33-0.91-9.04-2.72-13.74-7.08c-4.7-7.67-5.6-13.5-5.52-22.39
	c0-1.22-0.02-2.44-0.02-3.7c-0.03-4.04-0.02-8.06,0-12.08c0-2.8,0-5.62-0.02-8.42c0-5.89,0-11.77,0.03-17.65
	c0.03-7.52,0.02-15.04-0.02-22.56c-0.02-5.8-0.02-11.59,0-17.39c0-2.78,0-5.55-0.02-8.32c-0.02-3.89,0.02-7.77,0.03-11.64
	c0-1.14-0.02-2.28-0.03-3.45c0.1-7.6,1.56-12.42,5.55-18.93C43.44,165.7,50.72,164.55,62.23,167.41z"/>
<path class="st4" d="M553.89,310.68c7.26,3.96,10.42,8.5,13.02,16.28c0.42,5,0.42,5,0.44,10.63c0.02,1.55,0.02,1.55,0.03,3.13
	c0.02,3.4,0.02,6.81,0.02,10.19c0,2.38,0.02,4.75,0.02,7.13c0.02,4.97,0.02,9.93,0.02,14.91c-0.02,6.35,0.02,12.7,0.05,19.05
	c0.02,4.9,0.03,9.8,0.02,14.7c0,2.34,0.02,4.69,0.03,7.03c0.02,3.27,0,6.54-0.02,9.83c0,1.86,0,3.73,0,5.65
	c-0.91,7.78-3.6,12.96-9.05,18.72c-6.72,4.04-12.99,5.44-20.74,3.66c-6.84-2.57-10.79-6.06-14.77-12.31
	c-1.86-5.54-1.86-10.83-1.89-16.64c-0.02-0.99-0.02-2-0.03-3.03c-0.02-3.29-0.03-6.58-0.03-9.87c-0.02-2.31-0.02-4.61-0.03-6.9
	c-0.02-4.82-0.03-9.64-0.03-14.46c-0.02-6.15-0.05-12.31-0.1-18.46c-0.03-4.75-0.03-9.49-0.03-14.25c-0.02-2.26-0.02-4.54-0.05-6.81
	c-0.2-22.24-0.2-22.24,5.45-31.7C534.98,308.87,542.48,307.83,553.89,310.68z"/>
<path class="st2" d="M358.53,95.78c6.2,3.97,10.66,7.59,13.02,14.65c0.18,2.47,0.26,4.95,0.29,7.42c0.02,1.5,0.03,3,0.07,4.54
	c0,1.63,0.02,3.24,0.03,4.9c0.02,1.68,0.02,3.34,0.03,5.06c0.03,3.53,0.05,7.07,0.07,10.6c0.02,5.39,0.1,10.78,0.16,16.17
	c0.02,3.44,0.03,6.87,0.05,10.31c0.02,1.61,0.05,3.21,0.08,4.87c-0.03,9.65-0.93,15.03-7.29,22.42c-6.14,5.42-12.41,5.93-20.33,5.67
	c-6.87-1.32-11.54-4.84-15.48-10.55c-3.13-8.94-3.76-16.93-3.74-26.36c-0.02-1.4-0.02-2.8-0.02-4.25c-0.02-2.95-0.02-5.89-0.02-8.84
	c0.02-4.49-0.03-8.99-0.07-13.48c0-2.88,0-5.75,0-8.63c-0.02-1.33-0.03-2.67-0.05-4.04c0.08-10.24,1.97-17.94,8.58-26.08
	C341.71,93.95,349.07,92.67,358.53,95.78z"/>
</svg>
