<?xml version="1.0" standalone="no"?><!DOCTYPE svg PUBLIC "-//W3C//DTD SVG 1.1//EN" "http://www.w3.org/Graphics/SVG/1.1/DTD/svg11.dtd"><svg t="1780972313484" class="icon" viewBox="0 0 1024 1024" version="1.1" xmlns="http://www.w3.org/2000/svg" p-id="4742" xmlns:xlink="http://www.w3.org/1999/xlink" width="200" height="200"><path d="M889.58464 272.90112c-114.86208 0-208.13824-93.27616-208.13824-208.13824h-156.0064v604.05248c0 70.06208-57.02144 127.08352-127.0784 127.08352-70.06208 0-127.08864-57.02144-127.08864-127.08352 0-70.05696 57.02656-127.08352 127.08352-127.08352 13.03552 0 28.1088 2.03776 39.92064 5.70368V388.5824c-13.03552-1.62816-26.47552-2.85184-39.92064-2.85184-156.41088 0-283.0848 126.67904-283.0848 283.0848 0 156.41088 126.67392 283.08992 283.0848 283.08992s283.08992-126.67904 283.08992-283.08992v-319.744c56.61696 46.4384 129.11616 74.1376 208.13824 74.1376V272.896z" fill="#d81e06" p-id="4743"></path></svg>