<?xml version="1.0" standalone="no"?><!DOCTYPE svg PUBLIC "-//W3C//DTD SVG 1.1//EN" "http://www.w3.org/Graphics/SVG/1.1/DTD/svg11.dtd"><svg t="1781164864289" class="icon" viewBox="0 0 1024 1024" version="1.1" xmlns="http://www.w3.org/2000/svg" p-id="1721" xmlns:xlink="http://www.w3.org/1999/xlink" width="200" height="200"><path d="M0 128A128 128 0 0 1 128 0h768A128 128 0 0 1 1024 128v768a128 128 0 0 1-128 128h-768A128 128 0 0 1 0 896v-768z" fill="#9147F0" p-id="1722"></path><path d="M0 784.0256h1024V896a128 128 0 0 1-128 128h-768A128 128 0 0 1 0 896v-112.0256z" fill="#7C33DE" p-id="1723"></path><path d="M896 0A128 128 0 0 1 1024 128v772.096A123.904 123.904 0 0 1 900.096 1024a116.1216 116.1216 0 0 1-116.0704-116.1216V0H896z" fill="#A761FF" p-id="1724"></path><path d="M784.0256 907.8784A116.1216 116.1216 0 0 0 900.096 1024 123.904 123.904 0 0 0 1024 900.096a116.1216 116.1216 0 0 0-116.1216-116.0704h-123.904v123.8528z" fill="#944BF0" p-id="1725"></path><path d="M172.032 203.9808h439.9616v80.0256H172.032V203.9808zM172.032 352h439.9616v80.0256H172.032V352zM444.0064 500.0192H171.9808v79.9744h272.0256V500.0192z" fill="#FFFFFF" p-id="1726"></path></svg>