<?xml version="1.0" encoding="utf-8"?>
<!-- Generator: Adobe Illustrator 25.3.1, SVG Export Plug-In . SVG Version: 6.00 Build 0)  -->
<svg version="1.1" id="图层_1" xmlns="http://www.w3.org/2000/svg" xmlns:xlink="http://www.w3.org/1999/xlink" x="0px" y="0px"
	 viewBox="0 0 600 600" style="enable-background:new 0 0 600 600;" xml:space="preserve">
<style type="text/css">
	.st0{fill:none;}
	.st1{fill:#B3CE7D;}
	.st2{fill:#F93737;}
	.st3{fill:#B2E5FF;}
	.st4{fill:#E6F28F;}
</style>
<rect id="透明方底" class="st0" width="600" height="600"/>
<path class="st1" d="M490.36,600h-97.46L600,393.42v97.22C600,551.39,551.27,600,490.36,600L490.36,600z M490.36,1.52
	C551.27,1.52,600,50.13,600,110.89v57.72L432.49,1.52H490.36L490.36,1.52z M455.33,218.73c0,39.49-15.23,75.95-39.59,103.29
	l-4.57,3.04c-47.21,51.65-83.76,113.92-106.6,182.28c-1.52,1.52-3.05,3.04-6.09,3.04c-3.05,0-4.57-1.52-6.09-3.04
	c-22.84-68.35-59.39-129.11-106.6-182.28l-4.57-4.56l-1.52-1.52l1.52,1.52c-24.37-27.34-39.59-63.8-39.59-103.29
	c0-33.42,10.66-63.8,27.41-88.1c28.93-41.01,74.62-66.84,127.92-66.84s100.51,25.82,127.92,66.84
	C444.67,154.94,455.33,185.32,455.33,218.73z M283.25,151.9h-19.8v36.46h-22.84c-22.84,0-42.64,18.23-42.64,42.53V240
	c0,22.78,18.27,42.53,42.64,42.53h39.59v-1.52h1.52V151.9L283.25,151.9z M388.32,189.87h-21.32v74.43h-24.37
	c-9.14,0-18.27-7.59-18.27-18.23v-57.72h-19.8v65.32c0,15.19,12.18,28.86,28.93,28.86h54.82L388.32,189.87L388.32,189.87z
	 M223.86,240v-9.11c0-12.15,9.14-21.27,21.32-21.27h18.27v53.16h-18.27C232.99,261.27,223.86,252.15,223.86,240z M165.99,124.56
	c-10.66,16.71-19.8,34.94-24.37,53.16L16.75,51.65C36.55,21.27,70.05,0,109.64,0h182.74l63.96,63.8
	c-18.27-7.59-38.07-10.63-57.87-10.63C243.65,54.68,194.92,82.03,165.99,124.56L165.99,124.56z M178.17,323.54l4.57,4.56
	c16.75,18.23,31.98,36.46,45.69,57.72L38.07,572.66C15.23,552.91,0,524.05,0,490.63V129.11l149.24,148.86
	C156.85,294.68,165.99,309.87,178.17,323.54L178.17,323.54z M461.42,215.7c0-21.27-4.57-41.01-10.66-59.24l146.19,145.82
	L432.49,467.85l-70.05-69.87c15.23-24.3,33.5-47.09,53.3-69.87l4.57-4.56C444.67,294.68,461.42,256.71,461.42,215.7L461.42,215.7z
	 M292.39,516.46c1.52,1.52,3.05,3.04,6.09,3.04s4.57-1.52,6.09-3.04c6.09-19.75,15.23-39.49,24.37-59.24l56.35,56.2L298.48,600
	H109.64c-9.14,0-18.27-1.52-25.89-3.04l170.56-170.13C269.54,455.7,283.25,486.08,292.39,516.46L292.39,516.46z"/>
<path class="st2" d="M455.33,218.73c0,39.49-15.23,75.95-39.59,103.29l-4.57,3.04c-47.21,51.65-83.76,113.92-106.6,182.28
	c-1.52,1.52-3.05,3.04-6.09,3.04c-3.05,0-4.57-1.52-6.09-3.04c-22.84-68.35-59.39-129.11-106.6-182.28l-4.57-4.56l-1.52-1.52
	l1.52,1.52c-24.37-27.34-39.59-63.8-39.59-103.29c0-33.42,10.66-63.8,27.41-88.1c28.93-41.01,74.62-66.84,127.92-66.84
	s100.51,25.82,127.92,66.84C444.67,154.94,455.33,185.32,455.33,218.73z M283.25,151.9h-19.8v36.46h-22.84
	c-22.84,0-42.64,18.23-42.64,42.53V240c0,22.78,18.27,42.53,42.64,42.53h39.59v-1.52h1.52V151.9L283.25,151.9z M388.32,189.87
	h-21.32v74.43h-24.37c-9.14,0-18.27-7.59-18.27-18.23v-57.72h-19.8v65.32c0,15.19,12.18,28.86,28.93,28.86h54.82L388.32,189.87
	L388.32,189.87z M223.86,240v-9.11c0-12.15,9.14-21.27,21.32-21.27h18.27v53.16h-18.27C232.99,261.27,223.86,252.15,223.86,240z"/>
<path class="st3" d="M490.36,1.52C551.27,1.52,600,50.13,600,110.89v57.72L432.49,1.52L490.36,1.52L490.36,1.52z"/>
<path class="st4" d="M165.99,124.56c-10.66,16.71-19.8,34.94-24.37,53.16L16.75,51.65C36.55,21.27,70.05,0,109.64,0h182.74
	l63.96,63.8c-18.27-7.59-38.07-10.63-57.87-10.63C243.65,54.68,194.92,82.03,165.99,124.56z M461.42,215.7
	c0-21.27-4.57-41.01-10.66-59.24l146.19,145.82L432.49,467.85l-70.05-69.87c15.23-24.3,33.5-47.09,53.3-69.87l4.57-4.56
	C444.67,294.68,461.42,256.71,461.42,215.7L461.42,215.7z"/>
</svg>
