<?xml version="1.0" encoding="utf-8"?>
<!-- Generator: Adobe Illustrator 25.3.1, SVG Export Plug-In . SVG Version: 6.00 Build 0)  -->
<svg version="1.1" id="图层_1" xmlns="http://www.w3.org/2000/svg" xmlns:xlink="http://www.w3.org/1999/xlink" x="0px" y="0px"
	 viewBox="0 0 600 600" style="enable-background:new 0 0 600 600;" xml:space="preserve">
<style type="text/css">
	.st0{fill:none;}
	.st1{fill:#61C3FA;}
	.st2{fill:#EC5A70;}
	.st3{fill:#EB566F;}
	.st4{fill:#448BF7;}
</style>
<rect id="透明方底" class="st0" width="600" height="600"/>
<path class="st1" d="M304.34,69.16c-41.21,0-74.62,33.41-74.62,74.62s33.41,74.63,74.62,74.63c41.21,0,74.63-33.41,74.63-74.63
	C378.92,102.59,345.53,69.21,304.34,69.16 M304.34,2c78.31,0,141.79,63.48,141.79,141.79s-63.48,141.79-141.79,141.79
	s-141.79-63.48-141.79-141.79l0,0C162.55,65.48,226.03,2,304.34,2z"/>
<path class="st1" d="M530.52,393.22c-52.78,49.11-135.35,46.23-184.58-6.44c-12.65-13.56-11.91-34.81,1.66-47.46
	c13.56-12.65,34.81-11.91,47.46,1.66c23.89,25.62,64.03,27.02,89.65,3.13s27.02-64.03,3.13-89.65
	c-23.89-25.62-64.03-27.02-89.65-3.13c-13.56,12.65-34.81,11.91-47.46-1.66c-12.65-13.56-11.91-34.81,1.66-47.46
	c52.93-49,135.55-45.81,184.55,7.12C585.68,261.98,582.81,344.09,530.52,393.22z M162.55,233.34c-37.09,0-67.16,30.07-67.16,67.16
	c0,37.09,30.07,67.16,67.16,67.16s67.16-30.07,67.16-67.16C229.67,263.42,199.63,233.38,162.55,233.34 M162.55,166.18
	c74.19,0,134.33,60.14,134.33,134.32s-60.14,134.33-134.33,134.33S28.23,374.69,28.23,300.5
	C28.23,226.31,88.37,166.18,162.55,166.18C162.55,166.18,162.55,166.18,162.55,166.18z"/>
<path class="st1" d="M250.26,402.21l-47.98-47.01l152.06-155.23l47.98,47.01L250.26,402.21z"/>
<path class="st2" d="M304.34,285.57c-78.27-0.09-141.7-63.52-141.79-141.79c0-18.55,15.03-33.58,33.58-33.58h0
	c18.55,0,33.58,15.03,33.58,33.58v0c0.02,41.21,33.44,74.61,74.66,74.59c41.19-0.02,74.57-33.4,74.59-74.59
	c0-18.55,15.03-33.58,33.58-33.58s33.58,15.03,33.58,33.58C446.04,222.06,382.61,285.48,304.34,285.57L304.34,285.57z"/>
<path class="st3" d="M207.33,539.3h97.01V599h-97.01c-16.49,0-29.85-13.36-29.85-29.85l0,0C177.48,552.66,190.84,539.3,207.33,539.3
	L207.33,539.3L207.33,539.3z"/>
<path class="st4" d="M304.34,539.3h97.01c16.49,0,29.85,13.36,29.85,29.85c0,0,0,0,0,0c0,16.49-13.36,29.85-29.85,29.85h-97.01
	V539.3z"/>
</svg>
