<?xml version="1.0" encoding="utf-8"?>
<!-- Generator: Adobe Illustrator 25.3.1, SVG Export Plug-In . SVG Version: 6.00 Build 0)  -->
<svg version="1.1" id="图层_1" xmlns="http://www.w3.org/2000/svg" xmlns:xlink="http://www.w3.org/1999/xlink" x="0px" y="0px"
	 viewBox="0 0 600 600" style="enable-background:new 0 0 600 600;" xml:space="preserve">
<style type="text/css">
	.st0{fill:none;}
	.st1{fill:none;stroke:#FF0000;stroke-miterlimit:10;}
	.st2{fill:#FFFFFF;}
	.st3{fill:#D4D5D6;}
	.st4{fill:url(#SVGID_1_);}
</style>
<rect id="透明方底" class="st0" width="600" height="600"/>
<circle id="圆框" class="st1" cx="299.96" cy="300.02" r="299.54"/>
<g>
	<g>
		<g>
			<g id="XMLID_00000081640079715900035800000007943484050670270617_">
				<path class="st2" d="M119.89,593.52c-62.64,0-113.76-50.88-113.76-113.76V120C6.13,57.36,57.01,6.24,119.89,6.24h360
					c62.64,0,113.76,50.88,113.76,113.76v360c0,62.64-50.88,113.76-113.76,113.76h-360V593.52z"/>
				<path class="st3" d="M479.89,12.48c59.28,0,107.28,48.24,107.28,107.28v360c0,59.28-48.24,107.28-107.28,107.28h-360
					c-59.28,0-107.28-48.24-107.28-107.28V120c0-59.28,48.24-107.28,107.28-107.28h360 M479.89,0h-360c-66,0-120,54-120,120v360
					c0,66,54,120,120,120h360c66,0,120-54,120-120V120C599.89,54,545.89,0,479.89,0L479.89,0z"/>
			</g>
		</g>
	</g>
	
		<linearGradient id="SVGID_1_" gradientUnits="userSpaceOnUse" x1="71.3189" y1="569.09" x2="519.9869" y2="120.422" gradientTransform="matrix(1 0 0 -1 0 602)">
		<stop  offset="0" style="stop-color:#27CFFF"/>
		<stop  offset="0.3407" style="stop-color:#2C73FF"/>
		<stop  offset="0.6649" style="stop-color:#3063FE"/>
		<stop  offset="0.9795" style="stop-color:#CF83FA"/>
	</linearGradient>
	<path class="st4" d="M522.13,363.12l-24.24,13.44c-10.08,5.52-18.24,13.68-23.76,23.76l-13.2,24.24c-1.44,2.64-5.28,2.64-6.72,0
		l-13.44-24.24c-5.52-10.08-13.68-18.24-23.76-23.76l-24.24-13.2c-2.64-1.44-2.64-5.28,0-6.72l24.24-13.44
		c10.08-5.52,18.24-13.68,23.76-23.76l13.2-24.48c1.44-2.64,5.28-2.64,6.72,0l13.44,24.24c5.52,10.08,13.68,18.24,23.76,23.76
		l24.24,13.2C525.01,357.6,525.01,361.68,522.13,363.12z M524.53,265.68l-11.76-6.48c-4.8-2.64-8.64-6.48-11.28-11.28l-6.48-11.76
		c-0.72-1.2-2.64-1.2-3.36,0l-6.48,11.76c-2.64,4.8-6.48,8.64-11.28,11.28l-11.76,6.48c-1.2,0.72-1.2,2.64,0,3.36l11.76,6.48
		c4.8,2.64,8.64,6.48,11.28,11.28l6.48,11.76c0.72,1.2,2.64,1.2,3.36,0l6.48-11.76c2.64-4.8,6.48-8.64,11.28-11.28l11.76-6.48
		C525.97,268.32,525.97,266.4,524.53,265.68z M443.65,162.72c22.32,0,40.32-18.24,40.32-40.32s-18.24-40.32-40.32-40.32H153.97
		c-22.32,0-40.32,18.24-40.32,40.32s18.24,40.32,40.32,40.32H443.65z M385.09,416.88c-8.4,0-16.8,2.64-23.52,7.68l-2.88,2.4
		c-16.56,15.36-38.16,23.76-60.72,23.76c-24.48,0-47.28-9.6-64.56-27.36c-17.04-17.52-26.16-40.8-25.44-65.28
		c1.2-45.84,38.16-84.24,83.76-87.12c1.92-0.24,4.08-0.24,6-0.24c22.08,0,43.2,7.92,59.52,22.56c2.88,2.88,6.24,5.28,9.84,7.2
		c0.72,0.24,1.2,0.72,1.92,0.96l3.12,1.2c4.32,1.44,8.64,2.4,13.2,2.4c21.84,0,39.36-17.76,39.36-39.36c0-9.84-3.6-19.2-10.08-26.4
		l-2.64-2.88c-30.96-28.56-71.52-44.4-114-44.4c-45.12,0-87.36,17.52-119.28,49.44s-49.44,74.16-49.44,119.28
		s17.52,87.36,49.44,119.28s74.16,49.44,119.28,49.44c42.72,0,83.52-16.08,114.72-44.88l2.64-2.88c6-7.2,9.36-16.08,9.36-25.44
		C424.45,434.64,406.69,416.88,385.09,416.88z"/>
</g>
</svg>
