<?xml version="1.0" standalone="no"?><!DOCTYPE svg PUBLIC "-//W3C//DTD SVG 1.1//EN" "http://www.w3.org/Graphics/SVG/1.1/DTD/svg11.dtd"><svg t="1780968591556" class="icon" viewBox="0 0 1024 1024" version="1.1" xmlns="http://www.w3.org/2000/svg" p-id="1825" xmlns:xlink="http://www.w3.org/1999/xlink" width="200" height="200"><path d="M252.574483 501.310543c-82.730213 17.862833-113.496937-78.148871-104.377232-123.148761 0 0.001023 9.764388-97.147574 76.864622-103.127775 53.284577-4.691859 92.530416 53.816696 96.616478 87.309508C324.102562 384.066259 335.417259 483.448734 252.574483 501.310543L252.574483 501.310543zM376.857067 750.824317c0 0.001023-30.200836-1.590218-39.396265-36.482913-4.76963-15.479553 0.679475-33.304524 3.064802-40.342824 2.194992-7.039323 12.374842-23.275099 33.265638-29.519314l46.436612 0 0 106.346073L376.857067 750.82534 376.857067 750.824317zM406.414243 334.678432c-45.754067 0-82.804914-52.831252-82.804914-118.114095 0-65.283866 37.050848-118.040417 82.804914-118.040417 45.717228 0 82.691327 52.756551 82.691327 118.040417C489.10557 281.84718 452.131471 334.678432 406.414243 334.678432L406.414243 334.678432zM711.861934 235.411591c-7.834432 49.615001-47.077202 115.087155-108.311845 107.026572-61.119009-7.835456-74.93262-63.316048-68.992327-118.948089C539.439956 178.037882 593.633229 108.290355 637.07974 118.318756 680.300101 128.195707 719.884654 185.834452 711.861934 235.411591L711.861934 235.411591zM765.223259 552.817638c-90.790796 1.968841-94.611821-61.535495-94.611821-107.063411 0-47.685046 9.688663-115.201765 82.804914-115.201765 72.963779 0 92.568279 71.52808 92.568279 95.256504C845.985654 449.728748 855.93833 550.812981 765.223259 552.817638L765.223259 552.817638zM779.00003 796.880259c-45.26288 107.179045-210.949456 51.469232-210.949456 51.469232 0 0.001023-61.081147-19.755949-132.117017-3.897773-70.883397 15.893992-131.965567 9.915837-131.965567 9.915837s-82.918501 1.968841-106.572224-103.165638c-23.577998-105.172341 82.730213-162.773224 90.716094-172.574451 7.871271-9.990538 63.011102-47.609321 98.473779-107.175975 35.57217-59.417251 142.03183-107.10332 216.96445 9.914814 55.253418 79.398328 149.867286 152.780639 149.867286 152.780639C753.416352 634.148991 824.336588 689.778986 779.00003 796.880259L779.00003 796.880259zM469.842855 532.609387l-48.745191-0.795109 0 70.618361-57.371662 0c0 0-57.334823 4.76963-77.431533 69.976748-7.002484 43.48335 6.169513 69.142753 8.477069 74.630744 2.309602 5.450129 20.852934 37.276998 67.403133 46.623877l107.668185 0L469.842855 532.609387 469.842855 532.609387zM670.496827 608.791463l-53.474912 0 0 138.247644-51.052746 0c0 0.001023-16.309454-2.385327-19.376303-15.554254L546.592866 607.958492l-50.334385 0.832971 0 137.452535c0 0.001023 2.233877 34.212196 50.334385 46.661739l123.903961 0L670.496827 608.791463 670.496827 608.791463z" fill="#FF0303" p-id="1826"></path></svg>