<?xml version="1.0" standalone="no"?><!DOCTYPE svg PUBLIC "-//W3C//DTD SVG 1.1//EN" "http://www.w3.org/Graphics/SVG/1.1/DTD/svg11.dtd"><svg t="1780369006270" class="icon" viewBox="0 0 1024 1024" version="1.1" xmlns="http://www.w3.org/2000/svg" p-id="26219" xmlns:xlink="http://www.w3.org/1999/xlink" width="256" height="256"><path d="M512.011737 512.011737m-500.274809 0a500.274809 500.274809 0 1 0 1000.549618 0 500.274809 500.274809 0 1 0-1000.549618 0Z" fill="#FFFFFF" p-id="26220"></path><path d="M540.696788 576.377049a53.966394 53.966394 0 0 1-53.966393 53.966394h-206.170874a53.966394 53.966394 0 0 1-53.966394-53.966394V265.395411a53.966394 53.966394 0 0 1 53.966394-53.966394h206.170874a53.966394 53.966394 0 0 1 53.966393 53.966394v310.981638z" fill="#FFFFFF" p-id="26221"></path><path d="M669.05183 667.479082a53.966394 53.966394 0 0 1-53.966393 53.966394H408.914563a53.966394 53.966394 0 0 1-53.966393-53.966394V356.497444a53.966394 53.966394 0 0 1 53.966393-53.966394h206.170874a53.966394 53.966394 0 0 1 53.966393 53.966394v310.981638z" fill="#FFFFFF" p-id="26222"></path><path d="M797.406873 758.581115a53.966394 53.966394 0 0 1-53.966394 53.966394h-206.170874a53.966394 53.966394 0 0 1-53.966393-53.966394V447.599477a53.966394 53.966394 0 0 1 53.966393-53.966394h206.170874a53.966394 53.966394 0 0 1 53.966394 53.966394v310.981638z" fill="#FFFFFF" p-id="26223"></path></svg>