<?xml version="1.0" encoding="utf-8"?>
<!-- Generator: Adobe Illustrator 25.3.1, SVG Export Plug-In . SVG Version: 6.00 Build 0)  -->
<svg version="1.1" id="图层_1" xmlns="http://www.w3.org/2000/svg" xmlns:xlink="http://www.w3.org/1999/xlink" x="0px" y="0px"
	 viewBox="0 0 600 600" style="enable-background:new 0 0 600 600;" xml:space="preserve">
<style type="text/css">
	.st0{fill:none;}
	.st1{fill:#007AFF;}
</style>
<rect id="透明方底" class="st0" width="600" height="600"/>
<path class="st1" d="M574.98,25.02c15.62,15.62,23.64,34.95,24.06,58.03v434.86c-0.42,23.08-8.44,42.41-24.06,58.03
	s-34.95,23.64-58.03,24.06H82.09c-23.08-0.42-42.45-8.44-58.03-24.06C8.44,560.31,0.42,540.99,0,517.91V83.05
	c0.42-23.08,8.44-42.41,24.06-58.03S59.01,1.38,82.09,0.96h434.86C540.03,1.43,559.35,9.45,574.98,25.02L574.98,25.02z
	 M205.23,337.68c0-10.7-3.1-19.47-9.29-26.32s-15.48-10.27-27.91-10.27c-12.38,0-22.14,3.42-29.18,10.27
	c-7.04,6.85-9.52,15.62-7.36,26.32v94.29c0,10.27,3.52,18.9,10.6,25.99s15.81,10.6,26.32,10.6c10.46,0,19.14-3.52,25.99-10.6
	c6.85-7.04,10.46-15.71,10.88-25.99v-94.29H205.23z M332.22,169.04c0-10.27-3.52-18.9-10.6-25.99s-15.81-10.6-26.32-10.6
	c-10.46,0-19.14,3.52-25.99,10.6c-6.85,7.04-10.46,15.71-10.88,25.99v262.93c0.42,10.27,4.08,18.9,10.88,25.99
	c6.85,7.04,15.48,10.6,25.99,10.6c10.46,0,19.23-3.52,26.32-10.6s10.6-15.71,10.6-25.99L332.22,169.04L332.22,169.04z M463.7,296.63
	c-0.42-10.7-4.69-19.47-12.81-26.32s-17.54-10.27-28.24-10.27c-10.7,0-19.23,3.42-25.66,10.27s-8.77,15.62-7.04,26.32v135.34
	c0,10.27,3.52,18.9,10.6,25.99c7.08,7.08,15.81,10.6,26.32,10.6c10.46,0,19.14-3.52,25.99-10.6c6.85-7.04,10.46-15.71,10.88-25.99
	V296.63H463.7z"/>
</svg>
