<?xml version="1.0" encoding="utf-8"?>
<!-- Generator: Adobe Illustrator 25.3.1, SVG Export Plug-In . SVG Version: 6.00 Build 0)  -->
<svg version="1.1" id="图层_1" xmlns="http://www.w3.org/2000/svg" xmlns:xlink="http://www.w3.org/1999/xlink" x="0px" y="0px"
	 viewBox="0 0 600 600" style="enable-background:new 0 0 600 600;" xml:space="preserve">
<style type="text/css">
	.st0{fill:none;}
	.st1{fill:#4A8CFF;}
	.st2{fill:#FFFFFF;}
</style>
<rect id="透明方底" class="st0" width="600" height="600"/>
<circle class="st1" cx="300" cy="300.44" r="300"/>
<path class="st2" d="M107.51,206.52V347.5c0.15,31.84,26.08,57.54,57.92,57.41h205.5c5.78,0.03,10.5-4.63,10.54-10.41V253.51
	c-0.15-31.84-26.08-57.54-57.92-57.41H118.12c-5.79-0.06-10.54,4.58-10.61,10.38C107.51,206.49,107.51,206.51,107.51,206.52
	L107.51,206.52z M394.56,261.52l84.84-61.98c7.37-6.11,13.08-4.57,13.08,6.48V395c0,12.57-6.99,11.05-13.08,6.46l-84.84-61.84
	L394.56,261.52z"/>
</svg>
