<?xml version="1.0" encoding="utf-8"?>
<!-- Generator: Adobe Illustrator 25.3.1, SVG Export Plug-In . SVG Version: 6.00 Build 0)  -->
<svg version="1.1" id="图层_1" xmlns="http://www.w3.org/2000/svg" xmlns:xlink="http://www.w3.org/1999/xlink" x="0px" y="0px"
	 viewBox="0 0 600 600" style="enable-background:new 0 0 600 600;" xml:space="preserve">
<style type="text/css">
	.st0{fill:none;}
	.st1{fill:#F76E05;}
</style>
<rect id="透明方底" class="st0" width="600" height="600"/>
<path class="st1" d="M107.46,408.4c-12.55-2.6-21.59-13.59-21.72-26.4V236.8c0.47-12.69,9.36-23.49,21.72-26.4l134.82-29.22
	l14.16-57.78H99.9C45.09,123.03,0.37,167.17,0,221.97c0,0.22,0,0.44,0,0.66v171.6c0.36,55.03,44.87,99.57,99.9,99.96h156.54
	l-14.16-57.54L107.46,408.4z M499.74,123.4H342l14.4,57.78l134.82,29.22c12.54,2.62,21.57,13.59,21.72,26.4V382
	c-0.51,12.67-9.39,23.46-21.72,26.4L356.4,437.62L342,495.4h157.74c55.24,0.13,100.13-44.54,100.26-99.78c0-0.14,0-0.28,0-0.42
	V222.64C599.34,167.7,554.68,123.49,499.74,123.4z"/>
<path class="st1" d="M242.28,301.84H357.3V316H242.28V301.84z"/>
</svg>
