<?xml version="1.0" standalone="no"?><!DOCTYPE svg PUBLIC "-//W3C//DTD SVG 1.1//EN" "http://www.w3.org/Graphics/SVG/1.1/DTD/svg11.dtd"><svg t="1780447712873" class="icon" viewBox="0 0 1029 1024" version="1.1" xmlns="http://www.w3.org/2000/svg" p-id="2658" xmlns:xlink="http://www.w3.org/1999/xlink" width="200.9765625" height="200"><path d="M633.11828 0l-16.516129 5.505376C385.376344 82.580645 242.236559 209.204301 154.150538 341.333333c-5.505376 11.010753-11.010753 16.516129-16.516129 27.526882l-5.505377 11.010753c-66.064516 126.623656-27.526882 236.731183 165.161291 242.236559 137.634409-5.505376 236.731183-38.537634 330.32258-82.580645l22.021506-11.010753 22.021505-11.010753c-198.193548 55.053763-335.827957 60.55914-407.397849 22.021506-11.010753-5.505376-22.021505-16.516129-27.526882-38.537635 0-49.548387 82.580645-99.096774 132.129032-115.612903V302.795699h5.505376c99.096774 33.032258 214.709677 16.516129 313.806452-49.548387v11.010753c0 5.505376 5.505376 11.010753 5.505376 22.021505h16.516129v-5.505376c0-33.032258-22.021505-60.55914-60.559139-66.064517l5.505376 5.505377 5.505376 5.505376 11.010753 11.010753-5.505376 5.505376c-66.064516 44.043011-132.129032 55.053763-176.172043 55.053764H396.387097l71.569892-66.064517-22.021505-49.548387 27.526882-11.010752 38.537634-11.010753 27.526882-5.505376 27.526881-5.505377 27.526882-5.505376 27.526882-5.505376c82.580645-22.021505 170.666667-44.043011 291.784946-60.55914l-22.021505-16.516129c11.010753 11.010753 27.526882 16.516129 38.537634 27.526882 16.516129 16.516129 27.526882 33.032258 38.537635 55.053763 11.010753 22.021505 16.516129 38.537634 22.021505 60.55914 5.505376 22.021505 5.505376 44.043011 5.505376 66.064516v16.516129l-5.505376 5.505376-11.010753 16.516129-22.021505 22.021506-11.010753 16.516129-49.548387 55.053763-22.021505 22.021505c-22.021505 22.021505-38.537634 44.043011-55.053764 66.064517-22.021505 27.526882-33.032258 55.053763-33.032258 77.075268 0 55.053763 55.053763 71.569892 132.129032 66.064517h44.043011l11.010753-5.505377 11.010753-5.505376v154.150538c0 22.021505 0 44.043011-5.505377 66.064516-5.505376 22.021505-11.010753 44.043011-22.021505 60.559139-11.010753 22.021505-22.021505 38.537634-38.537635 55.053764-16.516129 16.516129-33.032258 27.526882-55.053763 38.537634-22.021505 11.010753-38.537634 16.516129-60.55914 22.021506-22.021505 5.505376-44.043011 5.505376-66.064516 5.505376H247.741935c-22.021505 0-44.043011 0-66.064516-5.505376-22.021505-5.505376-44.043011-11.010753-60.559139-22.021506-22.021505-11.010753-38.537634-22.021505-55.053764-38.537634-16.516129-16.516129-27.526882-33.032258-38.537634-55.053764-11.010753-22.021505-16.516129-38.537634-22.021506-60.559139-5.505376-22.021505-5.505376-44.043011-5.505376-66.064516V308.301075v-27.526881c0-22.021505 0-44.043011 5.505376-66.064517 5.505376-22.021505 11.010753-44.043011 22.021506-60.559139 11.010753-22.021505 22.021505-38.537634 38.537634-55.053764 16.516129-16.516129 33.032258-27.526882 55.053764-38.537634 22.021505-11.010753 38.537634-16.516129 60.559139-22.021506 22.021505-5.505376 44.043011-5.505376 66.064516-5.505376h44.043011l341.333334-33.032258zM473.462366 710.193548H396.387097v198.193549l27.526881-11.010753v-11.010753h27.526882l27.526882-27.526881v-55.053764l-11.010753-11.010752 11.010753-16.516129-5.505376-66.064517z m121.118279 55.053764h-110.107527v27.526882h44.043011v93.591397h-16.516129v22.021506h5.505376c11.010753 0 22.021505-5.505376 27.526882-11.010753 5.505376-5.505376 11.010753-16.516129 11.010753-27.526882v-77.075268c11.010753-5.505376 27.526882-16.516129 38.537634-27.526882z m170.666667-55.053764h-33.032258v88.086022H715.698925v110.107527h44.04301c11.010753 0 27.526882-5.505376 33.032259-11.010753 11.010753-11.010753 16.516129-22.021505 16.516129-33.032258v-60.55914h-44.043011v-38.537634h11.010753c16.516129 0 33.032258-11.010753 38.537634-27.526882h-49.548387v-27.526882z m-396.387097 0H176.172043v192.688172h137.634409c16.516129 0 27.526882-5.505376 38.537634-11.010752 11.010753-5.505376 16.516129-22.021505 16.516129-33.032258v-148.645162z m341.333333 170.666667h-93.591397v22.021505h88.086021l5.505376-22.021505z m-192.688172-77.075269h-27.526881l-16.516129 82.580645h27.526881l16.516129-82.580645z m66.064516 0h-27.526881l11.010752 82.580645h27.526882l-11.010753-82.580645z m-247.741935-71.569892V880.860215H209.204301v-148.645161h126.623656z m440.430108 88.086021V880.860215h-33.032259v-60.55914h33.032259z m-126.623656-71.569892h-33.032258l11.010752 121.118279h33.032258l-11.010752-121.118279z m60.559139 5.505376h-33.032258l-11.010752 121.11828h33.032258l11.010752-121.11828zM330.322581 748.731183H220.215054v22.021505h33.032258v22.021506H220.215054v22.021505h33.032258v33.032258H220.215054v22.021505h110.107527l11.010752-22.021505h-49.548387v-33.032258h33.032258l11.010753-22.021505h-44.043011V770.752688h33.032258l5.505377-22.021505z m115.612903 55.053763v55.053764h-22.021506v-55.053764h22.021506z m-126.623656 16.516129h-27.526882l11.010753 27.526882H330.322581l-11.010753-27.526882z m126.623656-88.086021v44.043011h-22.021506v-44.043011h22.021506z m220.215054-22.021506c-11.010753 0-16.516129 0-16.516129 5.505377s-5.505376 5.505376-5.505377 5.505376h-27.526881v22.021505h82.580645l11.010752-22.021505h-27.526881V715.698925l-5.505377-5.505377h-11.010752z m-77.075269 0h-110.107527v27.526882H550.537634c16.516129-5.505376 33.032258-11.010753 38.537635-27.526882zM990.967742 374.365591v137.634409c-16.516129 0-27.526882 0-44.043011 5.505376h-5.505376c-38.537634 0-44.043011-16.516129-33.032258-38.537634l5.505376-5.505376s0-5.505376 5.505376-5.505377l5.505377-5.505376c0-5.505376 5.505376-5.505376 5.505376-11.010753L935.913978 440.430108c11.010753-16.516129 22.021505-27.526882 33.032259-44.043011l22.021505-22.021506z" fill="#FF6004" p-id="2659"></path></svg>