<?xml version="1.0" standalone="no"?><!DOCTYPE svg PUBLIC "-//W3C//DTD SVG 1.1//EN" "http://www.w3.org/Graphics/SVG/1.1/DTD/svg11.dtd"><svg t="1781081718749" class="icon" viewBox="0 0 1024 1024" version="1.1" xmlns="http://www.w3.org/2000/svg" p-id="9052" xmlns:xlink="http://www.w3.org/1999/xlink" width="200" height="200"><path d="M623.03 535.918c-3.217-1.61-8.045-3.438-14.116-5.852-5.485-1.975-10.971-4.169-16.31-6.363a65.536 65.536 0 0 0-11.703 15.872 43.008 43.008 0 0 0-5.12 20.846c0 11.41 3.657 20.48 11.117 27.282a41.691 41.691 0 0 0 29.404 10.24 44.325 44.325 0 0 0 22.381-6.583 30.72 30.72 0 0 0 8.778-8.85 25.161 25.161 0 0 0 3.218-13.824 28.38 28.38 0 0 0-5.12-18.36c-3.657-4.241-11.045-8.996-22.528-14.408z m-18.797-59.977a197.486 197.486 0 0 0 11.191 4.754l17.262 6.436a70.07 70.07 0 0 0 9.581-16.237 49.225 49.225 0 0 0 3-17.774 24.942 24.942 0 0 0-8.485-19.895 33.06 33.06 0 0 0-22.894-7.534 35.109 35.109 0 0 0-22.382 6.73 20.626 20.626 0 0 0-8.484 16.603c0 6.51 1.755 11.85 5.12 15.799a47.543 47.543 0 0 0 16.091 11.044z m-192.512 46.08a31.598 31.598 0 0 0-12.727-6.29 62.757 62.757 0 0 0-28.525 0 95.817 95.817 0 0 0-13.166 4.095c0 1.097 0 2.926-0.22 5.34l-0.073 9.508c0 14.044 1.17 25.308 3.657 33.792a52.297 52.297 0 0 0 9.509 19.456 26.697 26.697 0 0 0 21.943 9.875c3.291 0 6.948-0.732 10.898-2.414a25.161 25.161 0 0 0 9.948-7.314 44.983 44.983 0 0 0 7.533-12.947 64.95 64.95 0 0 0 2.633-21.138 53.98 53.98 0 0 0-2.998-19.456 27.429 27.429 0 0 0-8.412-12.507z m418.012-46.08a197.486 197.486 0 0 0 11.19 4.754l17.262 6.436a63.634 63.634 0 0 0 9.582-16.237 49.152 49.152 0 0 0 3.145-17.774 25.527 25.527 0 0 0-8.411-19.895 33.5 33.5 0 0 0-22.967-7.534 34.67 34.67 0 0 0-22.309 6.73 20.334 20.334 0 0 0-8.558 16.603 23.406 23.406 0 0 0 5.12 15.799 46.958 46.958 0 0 0 15.946 11.044z" fill="#FF6600" p-id="9053"></path><path d="M896 0H128A128 128 0 0 0 0 128v768c0 70.73 57.27 128 128 128h768a128 128 0 0 0 128-128V128A128 128 0 0 0 896 0zM251.392 634.295H85.358v-42.789h53.028V462.043H85.431v-40.009c7.753 0 15.36-0.512 23.04-1.463a59.611 59.611 0 0 0 18.432-4.827 30.72 30.72 0 0 0 12.58-10.606 33.573 33.573 0 0 0 5.194-16.53h55.003v202.825h51.785v42.789z m210.14-19.895c-16.823 16.603-39.863 24.869-69.12 24.869-14.63 0-27.722-2.048-39.205-6.144a77.97 77.97 0 0 1-29.257-18.14 91.575 91.575 0 0 1-21.943-36.498 165.595 165.595 0 0 1-7.607-53.394c0-21.504 2.267-40.522 7.095-57.198 4.827-16.677 12.434-31.452 23.113-44.178 10.24-12.215 23.698-21.724 40.229-28.526 16.457-6.876 36.132-10.24 58.733-10.24 8.265 0 16.53 0.439 24.723 1.463 8.338 1.097 13.897 1.901 17.042 2.487v48.128H460.8a96.33 96.33 0 0 0-37.669-7.461c-19.821 0-35.035 5.047-45.714 15.14-10.752 10.094-17.335 24.503-19.748 43.374 8.118-5.12 16.53-9.289 25.014-12.288 8.485-3.072 18.14-4.608 28.819-4.608 8.996 0 17.554 1.244 25.38 3.511 8.046 2.414 14.995 5.852 21.285 10.24a68.754 68.754 0 0 1 20.7 25.6c5.12 10.46 7.752 23.991 7.752 40.375 0.074 25.82-8.338 46.885-25.088 63.488z m245.028-18.87a67.145 67.145 0 0 1-19.675 23.405c-8.485 6.583-19.018 11.703-31.452 15.433-12.215 3.73-26.331 5.632-42.35 5.632-16.822 0-31.67-1.902-44.47-5.705a89.82 89.82 0 0 1-31.306-15.36 61.147 61.147 0 0 1-17.773-22.967 68.17 68.17 0 0 1-5.705-27.794c0-13.97 3.95-25.673 11.849-34.963 7.9-9.289 19.456-17.115 34.523-23.332v-0.951c-14.775-7.022-25.015-15.506-30.866-25.527a64.293 64.293 0 0 1-8.777-33.28 53.102 53.102 0 0 1 6.07-25.307 64.658 64.658 0 0 1 18.14-21.212c7.753-5.851 17.408-10.679 29.11-14.19 11.85-3.51 25.016-5.339 39.717-5.339 15.507 0 29.111 1.61 40.595 4.828 11.483 3.291 20.992 7.533 28.525 12.8a55.077 55.077 0 0 1 17.555 19.382c4.096 7.607 6.217 16.092 6.144 24.869a52.005 52.005 0 0 1-10.387 31.451 77.531 77.531 0 0 1-31.817 23.626v0.95c16.677 6.583 28.965 15.214 36.864 25.893a62.83 62.83 0 0 1 11.85 38.4 63.05 63.05 0 0 1-6.437 29.257z m225.426 0a67.95 67.95 0 0 1-19.456 23.405c-8.557 6.583-19.017 11.703-31.305 15.433-12.434 3.73-26.55 5.632-42.423 5.632-16.896 0-31.817-1.902-44.47-5.705a90.697 90.697 0 0 1-31.306-15.36 59.904 59.904 0 0 1-17.7-22.967 68.242 68.242 0 0 1-5.852-27.794c0-13.97 4.023-25.673 11.923-34.963 7.899-9.289 19.529-17.115 34.596-23.332v-0.951c-14.775-7.022-25.088-15.506-31.012-25.527a64.293 64.293 0 0 1-8.778-33.28c0-8.996 1.975-17.408 6.071-25.307a63.488 63.488 0 0 1 18.286-21.212c7.607-5.851 17.335-10.679 29.11-14.19a138.971 138.971 0 0 1 39.644-5.339c15.507 0 29.111 1.61 40.595 4.828 11.483 3.291 20.992 7.533 28.525 12.8a55.077 55.077 0 0 1 17.555 19.382 51.493 51.493 0 0 1 6.144 24.869 52.005 52.005 0 0 1-10.46 31.451 77.531 77.531 0 0 1-31.744 23.626v0.95c16.677 6.583 28.965 15.214 36.791 25.893a62.83 62.83 0 0 1 11.776 38.4 63.122 63.122 0 0 1-6.51 29.257z" fill="#FF6600" p-id="9054"></path><path d="M848.457 535.918a208.677 208.677 0 0 0-14.043-5.852c-5.486-1.975-10.972-4.169-16.311-6.363a65.536 65.536 0 0 0-11.703 15.872 43.081 43.081 0 0 0-5.193 20.846c0 11.41 3.657 20.48 11.19 27.282 7.534 6.802 17.19 10.24 29.404 10.24a44.325 44.325 0 0 0 22.382-6.583 32.037 32.037 0 0 0 8.777-8.85 25.161 25.161 0 0 0 3.218-13.824 28.38 28.38 0 0 0-5.266-18.36c-3.438-4.241-10.971-8.996-22.382-14.408z" fill="#FF6600" p-id="9055"></path></svg>